<svg width="69" height="31" viewBox="0 0 69 31" fill="none" xmlns="http://www.w3.org/2000/svg">
<path d="M14.916 20.072C14.396 20.072 13.896 20.004 13.416 19.868C12.936 19.724 12.56 19.544 12.288 19.328L12.768 18.416C13.048 18.616 13.388 18.776 13.788 18.896C14.188 19.016 14.592 19.076 15 19.076C16.008 19.076 16.512 18.788 16.512 18.212C16.512 18.02 16.444 17.868 16.308 17.756C16.172 17.644 16 17.564 15.792 17.516C15.592 17.46 15.304 17.4 14.928 17.336C14.416 17.256 13.996 17.164 13.668 17.06C13.348 16.956 13.072 16.78 12.84 16.532C12.608 16.284 12.492 15.936 12.492 15.488C12.492 14.912 12.732 14.452 13.212 14.108C13.692 13.756 14.336 13.58 15.144 13.58C15.568 13.58 15.992 13.632 16.416 13.736C16.84 13.84 17.188 13.98 17.46 14.156L16.968 15.068C16.448 14.732 15.836 14.564 15.132 14.564C14.644 14.564 14.272 14.644 14.016 14.804C13.76 14.964 13.632 15.176 13.632 15.44C13.632 15.648 13.704 15.812 13.848 15.932C13.992 16.052 14.168 16.14 14.376 16.196C14.592 16.252 14.892 16.316 15.276 16.388C15.788 16.476 16.2 16.572 16.512 16.676C16.832 16.772 17.104 16.94 17.328 17.18C17.552 17.42 17.664 17.756 17.664 18.188C17.664 18.764 17.416 19.224 16.92 19.568C16.432 19.904 15.764 20.072 14.916 20.072ZM22.4517 19.628C22.2837 19.772 22.0757 19.884 21.8277 19.964C21.5797 20.036 21.3237 20.072 21.0597 20.072C20.4197 20.072 19.9237 19.9 19.5717 19.556C19.2197 19.212 19.0437 18.72 19.0437 18.08V12.248H20.1957V13.64H22.0197V14.588H20.1957V18.032C20.1957 18.376 20.2797 18.64 20.4477 18.824C20.6237 19.008 20.8717 19.1 21.1917 19.1C21.5437 19.1 21.8437 19 22.0917 18.8L22.4517 19.628ZM29.6272 13.64V20H28.5232V18.992C28.2672 19.344 27.9432 19.612 27.5512 19.796C27.1592 19.98 26.7272 20.072 26.2552 20.072C25.6392 20.072 25.0872 19.936 24.5992 19.664C24.1112 19.392 23.7272 19.012 23.4472 18.524C23.1752 18.028 23.0392 17.46 23.0392 16.82C23.0392 16.18 23.1752 15.616 23.4472 15.128C23.7272 14.64 24.1112 14.26 24.5992 13.988C25.0872 13.716 25.6392 13.58 26.2552 13.58C26.7112 13.58 27.1312 13.668 27.5152 13.844C27.8992 14.012 28.2192 14.264 28.4752 14.6V13.64H29.6272ZM26.3512 19.064C26.7512 19.064 27.1152 18.972 27.4432 18.788C27.7712 18.596 28.0272 18.332 28.2112 17.996C28.3952 17.652 28.4872 17.26 28.4872 16.82C28.4872 16.38 28.3952 15.992 28.2112 15.656C28.0272 15.312 27.7712 15.048 27.4432 14.864C27.1152 14.68 26.7512 14.588 26.3512 14.588C25.9432 14.588 25.5752 14.68 25.2472 14.864C24.9272 15.048 24.6712 15.312 24.4792 15.656C24.2952 15.992 24.2032 16.38 24.2032 16.82C24.2032 17.26 24.2952 17.652 24.4792 17.996C24.6712 18.332 24.9272 18.596 25.2472 18.788C25.5752 18.972 25.9432 19.064 26.3512 19.064ZM32.9108 14.708C33.1108 14.34 33.4068 14.06 33.7988 13.868C34.1908 13.676 34.6668 13.58 35.2268 13.58V14.696C35.1628 14.688 35.0748 14.684 34.9628 14.684C34.3388 14.684 33.8468 14.872 33.4868 15.248C33.1348 15.616 32.9588 16.144 32.9588 16.832V20H31.8068V13.64H32.9108V14.708ZM39.9947 19.628C39.8267 19.772 39.6187 19.884 39.3707 19.964C39.1227 20.036 38.8667 20.072 38.6027 20.072C37.9627 20.072 37.4667 19.9 37.1147 19.556C36.7627 19.212 36.5867 18.72 36.5867 18.08V12.248H37.7387V13.64H39.5627V14.588H37.7387V18.032C37.7387 18.376 37.8227 18.64 37.9907 18.824C38.1667 19.008 38.4147 19.1 38.7347 19.1C39.0867 19.1 39.3867 19 39.6347 18.8L39.9947 19.628ZM47.3091 13.64V20H46.2171V19.04C45.9851 19.368 45.6771 19.624 45.2931 19.808C44.9171 19.984 44.5051 20.072 44.0571 20.072C43.2091 20.072 42.5411 19.84 42.0531 19.376C41.5651 18.904 41.3211 18.212 41.3211 17.3V13.64H42.4731V17.168C42.4731 17.784 42.6211 18.252 42.9171 18.572C43.2131 18.884 43.6371 19.04 44.1891 19.04C44.7971 19.04 45.2771 18.856 45.6291 18.488C45.9811 18.12 46.1571 17.6 46.1571 16.928V13.64H47.3091ZM52.8742 13.58C53.4902 13.58 54.0422 13.716 54.5302 13.988C55.0182 14.26 55.3982 14.64 55.6702 15.128C55.9502 15.616 56.0902 16.18 56.0902 16.82C56.0902 17.46 55.9502 18.028 55.6702 18.524C55.3982 19.012 55.0182 19.392 54.5302 19.664C54.0422 19.936 53.4902 20.072 52.8742 20.072C52.4182 20.072 51.9982 19.984 51.6142 19.808C51.2382 19.632 50.9182 19.376 50.6542 19.04V22.328H49.5022V13.64H50.6062V14.648C50.8622 14.296 51.1862 14.032 51.5782 13.856C51.9702 13.672 52.4022 13.58 52.8742 13.58ZM52.7782 19.064C53.1862 19.064 53.5502 18.972 53.8702 18.788C54.1982 18.596 54.4542 18.332 54.6382 17.996C54.8302 17.652 54.9262 17.26 54.9262 16.82C54.9262 16.38 54.8302 15.992 54.6382 15.656C54.4542 15.312 54.1982 15.048 53.8702 14.864C53.5502 14.68 53.1862 14.588 52.7782 14.588C52.3782 14.588 52.0142 14.684 51.6862 14.876C51.3662 15.06 51.1102 15.32 50.9182 15.656C50.7342 15.992 50.6422 16.38 50.6422 16.82C50.6422 17.26 50.7342 17.652 50.9182 17.996C51.1022 18.332 51.3582 18.596 51.6862 18.788C52.0142 18.972 52.3782 19.064 52.7782 19.064Z" fill="#4D4D4D"/>
<rect x="0.5" y="0.5" width="68" height="30" rx="3.5" stroke="#4D4D4D"/>
</svg>
