<svg width="78" height="31" viewBox="0 0 78 31" fill="none" xmlns="http://www.w3.org/2000/svg">
<path d="M16.464 13.58C17.08 13.58 17.632 13.716 18.12 13.988C18.608 14.26 18.988 14.64 19.26 15.128C19.54 15.616 19.68 16.18 19.68 16.82C19.68 17.46 19.54 18.028 19.26 18.524C18.988 19.012 18.608 19.392 18.12 19.664C17.632 19.936 17.08 20.072 16.464 20.072C15.992 20.072 15.56 19.98 15.168 19.796C14.776 19.612 14.452 19.344 14.196 18.992V20H13.092V11.096H14.244V14.6C14.5 14.264 14.82 14.012 15.204 13.844C15.588 13.668 16.008 13.58 16.464 13.58ZM16.368 19.064C16.776 19.064 17.14 18.972 17.46 18.788C17.788 18.596 18.044 18.332 18.228 17.996C18.42 17.652 18.516 17.26 18.516 16.82C18.516 16.38 18.42 15.992 18.228 15.656C18.044 15.312 17.788 15.048 17.46 14.864C17.14 14.68 16.776 14.588 16.368 14.588C15.968 14.588 15.604 14.68 15.276 14.864C14.948 15.048 14.692 15.312 14.508 15.656C14.324 15.992 14.232 16.38 14.232 16.82C14.232 17.26 14.324 17.652 14.508 17.996C14.692 18.332 14.948 18.596 15.276 18.788C15.604 18.972 15.968 19.064 16.368 19.064ZM27.1997 13.64V20H26.1077V19.04C25.8757 19.368 25.5677 19.624 25.1837 19.808C24.8077 19.984 24.3957 20.072 23.9477 20.072C23.0997 20.072 22.4317 19.84 21.9437 19.376C21.4557 18.904 21.2117 18.212 21.2117 17.3V13.64H22.3637V17.168C22.3637 17.784 22.5117 18.252 22.8077 18.572C23.1037 18.884 23.5277 19.04 24.0797 19.04C24.6877 19.04 25.1677 18.856 25.5197 18.488C25.8717 18.12 26.0477 17.6 26.0477 16.928V13.64H27.1997ZM31.2168 20.072C30.6968 20.072 30.1968 20.004 29.7168 19.868C29.2368 19.724 28.8608 19.544 28.5888 19.328L29.0688 18.416C29.3488 18.616 29.6888 18.776 30.0888 18.896C30.4888 19.016 30.8928 19.076 31.3008 19.076C32.3088 19.076 32.8128 18.788 32.8128 18.212C32.8128 18.02 32.7448 17.868 32.6088 17.756C32.4728 17.644 32.3008 17.564 32.0928 17.516C31.8928 17.46 31.6048 17.4 31.2288 17.336C30.7168 17.256 30.2968 17.164 29.9688 17.06C29.6488 16.956 29.3728 16.78 29.1408 16.532C28.9088 16.284 28.7928 15.936 28.7928 15.488C28.7928 14.912 29.0328 14.452 29.5128 14.108C29.9928 13.756 30.6368 13.58 31.4448 13.58C31.8688 13.58 32.2928 13.632 32.7168 13.736C33.1408 13.84 33.4888 13.98 33.7608 14.156L33.2688 15.068C32.7488 14.732 32.1368 14.564 31.4328 14.564C30.9448 14.564 30.5728 14.644 30.3168 14.804C30.0608 14.964 29.9328 15.176 29.9328 15.44C29.9328 15.648 30.0048 15.812 30.1488 15.932C30.2928 16.052 30.4688 16.14 30.6768 16.196C30.8928 16.252 31.1928 16.316 31.5768 16.388C32.0888 16.476 32.5008 16.572 32.8128 16.676C33.1328 16.772 33.4048 16.94 33.6288 17.18C33.8528 17.42 33.9648 17.756 33.9648 18.188C33.9648 18.764 33.7168 19.224 33.2208 19.568C32.7328 19.904 32.0648 20.072 31.2168 20.072ZM35.4045 13.64H36.5565V20H35.4045V13.64ZM35.9805 12.416C35.7565 12.416 35.5685 12.344 35.4165 12.2C35.2725 12.056 35.2005 11.88 35.2005 11.672C35.2005 11.464 35.2725 11.288 35.4165 11.144C35.5685 10.992 35.7565 10.916 35.9805 10.916C36.2045 10.916 36.3885 10.988 36.5325 11.132C36.6845 11.268 36.7605 11.44 36.7605 11.648C36.7605 11.864 36.6845 12.048 36.5325 12.2C36.3885 12.344 36.2045 12.416 35.9805 12.416ZM42.1521 13.58C42.9601 13.58 43.6001 13.816 44.0721 14.288C44.5521 14.752 44.7921 15.436 44.7921 16.34V20H43.6401V16.472C43.6401 15.856 43.4921 15.392 43.1961 15.08C42.9001 14.768 42.4761 14.612 41.9241 14.612C41.3001 14.612 40.8081 14.796 40.4481 15.164C40.0881 15.524 39.9081 16.044 39.9081 16.724V20H38.7561V13.64H39.8601V14.6C40.0921 14.272 40.4041 14.02 40.7961 13.844C41.1961 13.668 41.6481 13.58 42.1521 13.58ZM49.8272 19.064C50.5872 19.064 51.1992 18.808 51.6632 18.296L52.2872 19.04C52.0072 19.376 51.6512 19.632 51.2192 19.808C50.7952 19.984 50.3192 20.072 49.7912 20.072C49.1192 20.072 48.5232 19.936 48.0032 19.664C47.4832 19.384 47.0792 18.996 46.7912 18.5C46.5112 18.004 46.3712 17.444 46.3712 16.82C46.3712 16.204 46.5072 15.648 46.7792 15.152C47.0592 14.656 47.4392 14.272 47.9192 14C48.4072 13.72 48.9552 13.58 49.5632 13.58C50.1392 13.58 50.6632 13.712 51.1352 13.976C51.6072 14.232 51.9832 14.596 52.2632 15.068C52.5432 15.54 52.6872 16.084 52.6952 16.7L47.6432 17.684C47.8032 18.124 48.0712 18.464 48.4472 18.704C48.8312 18.944 49.2912 19.064 49.8272 19.064ZM49.5632 14.552C49.1632 14.552 48.8032 14.644 48.4832 14.828C48.1712 15.012 47.9272 15.272 47.7512 15.608C47.5752 15.936 47.4872 16.32 47.4872 16.76V16.88L51.5552 16.112C51.4512 15.648 51.2192 15.272 50.8592 14.984C50.4992 14.696 50.0672 14.552 49.5632 14.552ZM56.1308 20.072C55.6108 20.072 55.1108 20.004 54.6308 19.868C54.1508 19.724 53.7748 19.544 53.5028 19.328L53.9828 18.416C54.2628 18.616 54.6028 18.776 55.0028 18.896C55.4028 19.016 55.8068 19.076 56.2148 19.076C57.2228 19.076 57.7268 18.788 57.7268 18.212C57.7268 18.02 57.6588 17.868 57.5228 17.756C57.3868 17.644 57.2148 17.564 57.0068 17.516C56.8068 17.46 56.5188 17.4 56.1428 17.336C55.6308 17.256 55.2108 17.164 54.8828 17.06C54.5628 16.956 54.2868 16.78 54.0548 16.532C53.8228 16.284 53.7068 15.936 53.7068 15.488C53.7068 14.912 53.9468 14.452 54.4268 14.108C54.9068 13.756 55.5508 13.58 56.3588 13.58C56.7828 13.58 57.2068 13.632 57.6308 13.736C58.0548 13.84 58.4028 13.98 58.6748 14.156L58.1828 15.068C57.6628 14.732 57.0508 14.564 56.3468 14.564C55.8588 14.564 55.4868 14.644 55.2308 14.804C54.9748 14.964 54.8468 15.176 54.8468 15.44C54.8468 15.648 54.9188 15.812 55.0628 15.932C55.2068 16.052 55.3828 16.14 55.5908 16.196C55.8068 16.252 56.1068 16.316 56.4908 16.388C57.0028 16.476 57.4148 16.572 57.7268 16.676C58.0468 16.772 58.3188 16.94 58.5428 17.18C58.7668 17.42 58.8788 17.756 58.8788 18.188C58.8788 18.764 58.6308 19.224 58.1348 19.568C57.6468 19.904 56.9788 20.072 56.1308 20.072ZM62.1426 20.072C61.6226 20.072 61.1226 20.004 60.6426 19.868C60.1626 19.724 59.7866 19.544 59.5146 19.328L59.9946 18.416C60.2746 18.616 60.6146 18.776 61.0146 18.896C61.4146 19.016 61.8186 19.076 62.2266 19.076C63.2346 19.076 63.7386 18.788 63.7386 18.212C63.7386 18.02 63.6706 17.868 63.5346 17.756C63.3986 17.644 63.2266 17.564 63.0186 17.516C62.8186 17.46 62.5306 17.4 62.1546 17.336C61.6426 17.256 61.2226 17.164 60.8946 17.06C60.5746 16.956 60.2986 16.78 60.0666 16.532C59.8346 16.284 59.7186 15.936 59.7186 15.488C59.7186 14.912 59.9586 14.452 60.4386 14.108C60.9186 13.756 61.5626 13.58 62.3706 13.58C62.7946 13.58 63.2186 13.632 63.6426 13.736C64.0666 13.84 64.4146 13.98 64.6866 14.156L64.1946 15.068C63.6746 14.732 63.0626 14.564 62.3586 14.564C61.8706 14.564 61.4986 14.644 61.2426 14.804C60.9866 14.964 60.8586 15.176 60.8586 15.44C60.8586 15.648 60.9306 15.812 61.0746 15.932C61.2186 16.052 61.3946 16.14 61.6026 16.196C61.8186 16.252 62.1186 16.316 62.5026 16.388C63.0146 16.476 63.4266 16.572 63.7386 16.676C64.0586 16.772 64.3306 16.94 64.5546 17.18C64.7786 17.42 64.8906 17.756 64.8906 18.188C64.8906 18.764 64.6426 19.224 64.1466 19.568C63.6586 19.904 62.9906 20.072 62.1426 20.072Z" fill="#4D4D4D"/>
<rect x="0.5" y="0.5" width="77" height="30" rx="3.5" stroke="#4D4D4D"/>
</svg>
