<svg width="105" height="31" viewBox="0 0 105 31" fill="none" xmlns="http://www.w3.org/2000/svg">
<path d="M16.44 19.628C16.272 19.772 16.064 19.884 15.816 19.964C15.568 20.036 15.312 20.072 15.048 20.072C14.408 20.072 13.912 19.9 13.56 19.556C13.208 19.212 13.032 18.72 13.032 18.08V12.248H14.184V13.64H16.008V14.588H14.184V18.032C14.184 18.376 14.268 18.64 14.436 18.824C14.612 19.008 14.86 19.1 15.18 19.1C15.532 19.1 15.832 19 16.08 18.8L16.44 19.628ZM17.8264 13.64H18.9784V20H17.8264V13.64ZM18.4024 12.416C18.1784 12.416 17.9904 12.344 17.8384 12.2C17.6944 12.056 17.6224 11.88 17.6224 11.672C17.6224 11.464 17.6944 11.288 17.8384 11.144C17.9904 10.992 18.1784 10.916 18.4024 10.916C18.6264 10.916 18.8104 10.988 18.9544 11.132C19.1064 11.268 19.1824 11.44 19.1824 11.648C19.1824 11.864 19.1064 12.048 18.9544 12.2C18.8104 12.344 18.6264 12.416 18.4024 12.416ZM24.5499 13.58C25.1659 13.58 25.7179 13.716 26.2059 13.988C26.6939 14.26 27.0739 14.64 27.3459 15.128C27.6259 15.616 27.7659 16.18 27.7659 16.82C27.7659 17.46 27.6259 18.028 27.3459 18.524C27.0739 19.012 26.6939 19.392 26.2059 19.664C25.7179 19.936 25.1659 20.072 24.5499 20.072C24.0939 20.072 23.6739 19.984 23.2899 19.808C22.9139 19.632 22.5939 19.376 22.3299 19.04V22.328H21.1779V13.64H22.2819V14.648C22.5379 14.296 22.8619 14.032 23.2539 13.856C23.6459 13.672 24.0779 13.58 24.5499 13.58ZM24.4539 19.064C24.8619 19.064 25.2259 18.972 25.5459 18.788C25.8739 18.596 26.1299 18.332 26.3139 17.996C26.5059 17.652 26.6019 17.26 26.6019 16.82C26.6019 16.38 26.5059 15.992 26.3139 15.656C26.1299 15.312 25.8739 15.048 25.5459 14.864C25.2259 14.68 24.8619 14.588 24.4539 14.588C24.0539 14.588 23.6899 14.684 23.3619 14.876C23.0419 15.06 22.7859 15.32 22.5939 15.656C22.4099 15.992 22.3179 16.38 22.3179 16.82C22.3179 17.26 22.4099 17.652 22.5939 17.996C22.7779 18.332 23.0339 18.596 23.3619 18.788C23.6899 18.972 24.0539 19.064 24.4539 19.064ZM31.1816 20.072C30.6616 20.072 30.1616 20.004 29.6816 19.868C29.2016 19.724 28.8256 19.544 28.5536 19.328L29.0336 18.416C29.3136 18.616 29.6536 18.776 30.0536 18.896C30.4536 19.016 30.8576 19.076 31.2656 19.076C32.2736 19.076 32.7776 18.788 32.7776 18.212C32.7776 18.02 32.7096 17.868 32.5736 17.756C32.4376 17.644 32.2656 17.564 32.0576 17.516C31.8576 17.46 31.5696 17.4 31.1936 17.336C30.6816 17.256 30.2616 17.164 29.9336 17.06C29.6136 16.956 29.3376 16.78 29.1056 16.532C28.8736 16.284 28.7576 15.936 28.7576 15.488C28.7576 14.912 28.9976 14.452 29.4776 14.108C29.9576 13.756 30.6016 13.58 31.4096 13.58C31.8336 13.58 32.2576 13.632 32.6816 13.736C33.1056 13.84 33.4536 13.98 33.7256 14.156L33.2336 15.068C32.7136 14.732 32.1016 14.564 31.3976 14.564C30.9096 14.564 30.5376 14.644 30.2816 14.804C30.0256 14.964 29.8976 15.176 29.8976 15.44C29.8976 15.648 29.9696 15.812 30.1136 15.932C30.2576 16.052 30.4336 16.14 30.6416 16.196C30.8576 16.252 31.1576 16.316 31.5416 16.388C32.0536 16.476 32.4656 16.572 32.7776 16.676C33.0976 16.772 33.3696 16.94 33.5936 17.18C33.8176 17.42 33.9296 17.756 33.9296 18.188C33.9296 18.764 33.6816 19.224 33.1856 19.568C32.6976 19.904 32.0296 20.072 31.1816 20.072ZM44.592 13.64V20H43.488V18.992C43.232 19.344 42.908 19.612 42.516 19.796C42.124 19.98 41.692 20.072 41.22 20.072C40.604 20.072 40.052 19.936 39.564 19.664C39.076 19.392 38.692 19.012 38.412 18.524C38.14 18.028 38.004 17.46 38.004 16.82C38.004 16.18 38.14 15.616 38.412 15.128C38.692 14.64 39.076 14.26 39.564 13.988C40.052 13.716 40.604 13.58 41.22 13.58C41.676 13.58 42.096 13.668 42.48 13.844C42.864 14.012 43.184 14.264 43.44 14.6V13.64H44.592ZM41.316 19.064C41.716 19.064 42.08 18.972 42.408 18.788C42.736 18.596 42.992 18.332 43.176 17.996C43.36 17.652 43.452 17.26 43.452 16.82C43.452 16.38 43.36 15.992 43.176 15.656C42.992 15.312 42.736 15.048 42.408 14.864C42.08 14.68 41.716 14.588 41.316 14.588C40.908 14.588 40.54 14.68 40.212 14.864C39.892 15.048 39.636 15.312 39.444 15.656C39.26 15.992 39.168 16.38 39.168 16.82C39.168 17.26 39.26 17.652 39.444 17.996C39.636 18.332 39.892 18.596 40.212 18.788C40.54 18.972 40.908 19.064 41.316 19.064ZM50.1677 13.58C50.9757 13.58 51.6157 13.816 52.0877 14.288C52.5677 14.752 52.8077 15.436 52.8077 16.34V20H51.6557V16.472C51.6557 15.856 51.5077 15.392 51.2117 15.08C50.9157 14.768 50.4917 14.612 49.9397 14.612C49.3157 14.612 48.8237 14.796 48.4637 15.164C48.1037 15.524 47.9237 16.044 47.9237 16.724V20H46.7717V13.64H47.8757V14.6C48.1077 14.272 48.4197 14.02 48.8117 13.844C49.2117 13.668 49.6637 13.58 50.1677 13.58ZM60.9748 11.096V20H59.8708V18.992C59.6148 19.344 59.2908 19.612 58.8988 19.796C58.5068 19.98 58.0748 20.072 57.6028 20.072C56.9868 20.072 56.4348 19.936 55.9468 19.664C55.4588 19.392 55.0748 19.012 54.7948 18.524C54.5228 18.028 54.3868 17.46 54.3868 16.82C54.3868 16.18 54.5228 15.616 54.7948 15.128C55.0748 14.64 55.4588 14.26 55.9468 13.988C56.4348 13.716 56.9868 13.58 57.6028 13.58C58.0588 13.58 58.4788 13.668 58.8628 13.844C59.2468 14.012 59.5668 14.264 59.8228 14.6V11.096H60.9748ZM57.6988 19.064C58.0988 19.064 58.4628 18.972 58.7908 18.788C59.1188 18.596 59.3748 18.332 59.5588 17.996C59.7428 17.652 59.8348 17.26 59.8348 16.82C59.8348 16.38 59.7428 15.992 59.5588 15.656C59.3748 15.312 59.1188 15.048 58.7908 14.864C58.4628 14.68 58.0988 14.588 57.6988 14.588C57.2908 14.588 56.9228 14.68 56.5948 14.864C56.2748 15.048 56.0188 15.312 55.8268 15.656C55.6428 15.992 55.5508 16.38 55.5508 16.82C55.5508 17.26 55.6428 17.652 55.8268 17.996C56.0188 18.332 56.2748 18.596 56.5948 18.788C56.9228 18.972 57.2908 19.064 57.6988 19.064ZM69.7252 19.628C69.5572 19.772 69.3492 19.884 69.1012 19.964C68.8532 20.036 68.5972 20.072 68.3332 20.072C67.6932 20.072 67.1972 19.9 66.8452 19.556C66.4932 19.212 66.3172 18.72 66.3172 18.08V12.248H67.4692V13.64H69.2932V14.588H67.4692V18.032C67.4692 18.376 67.5532 18.64 67.7212 18.824C67.8972 19.008 68.1452 19.1 68.4652 19.1C68.8172 19.1 69.1172 19 69.3652 18.8L69.7252 19.628ZM72.2155 14.708C72.4155 14.34 72.7115 14.06 73.1035 13.868C73.4955 13.676 73.9715 13.58 74.5315 13.58V14.696C74.4675 14.688 74.3795 14.684 74.2675 14.684C73.6435 14.684 73.1515 14.872 72.7915 15.248C72.4395 15.616 72.2635 16.144 72.2635 16.832V20H71.1115V13.64H72.2155V14.708ZM75.9514 13.64H77.1034V20H75.9514V13.64ZM76.5274 12.416C76.3034 12.416 76.1154 12.344 75.9634 12.2C75.8194 12.056 75.7474 11.88 75.7474 11.672C75.7474 11.464 75.8194 11.288 75.9634 11.144C76.1154 10.992 76.3034 10.916 76.5274 10.916C76.7514 10.916 76.9354 10.988 77.0794 11.132C77.2314 11.268 77.3074 11.44 77.3074 11.648C77.3074 11.864 77.2314 12.048 77.0794 12.2C76.9354 12.344 76.7514 12.416 76.5274 12.416ZM82.0749 20.072C81.4269 20.072 80.8469 19.932 80.3349 19.652C79.8309 19.372 79.4349 18.988 79.1469 18.5C78.8589 18.004 78.7149 17.444 78.7149 16.82C78.7149 16.196 78.8589 15.64 79.1469 15.152C79.4349 14.656 79.8309 14.272 80.3349 14C80.8469 13.72 81.4269 13.58 82.0749 13.58C82.6509 13.58 83.1629 13.696 83.6109 13.928C84.0669 14.16 84.4189 14.496 84.6669 14.936L83.7909 15.5C83.5909 15.196 83.3429 14.968 83.0469 14.816C82.7509 14.664 82.4229 14.588 82.0629 14.588C81.6469 14.588 81.2709 14.68 80.9349 14.864C80.6069 15.048 80.3469 15.312 80.1549 15.656C79.9709 15.992 79.8789 16.38 79.8789 16.82C79.8789 17.268 79.9709 17.664 80.1549 18.008C80.3469 18.344 80.6069 18.604 80.9349 18.788C81.2709 18.972 81.6469 19.064 82.0629 19.064C82.4229 19.064 82.7509 18.988 83.0469 18.836C83.3429 18.684 83.5909 18.456 83.7909 18.152L84.6669 18.704C84.4189 19.144 84.0669 19.484 83.6109 19.724C83.1629 19.956 82.6509 20.072 82.0749 20.072ZM88.5484 17.036L87.2284 18.26V20H86.0764V11.096H87.2284V16.808L90.6964 13.64H92.0884L89.4124 16.268L92.3524 20H90.9364L88.5484 17.036Z" fill="#4D4D4D"/>
<rect x="0.5" y="0.5" width="104" height="30" rx="3.5" stroke="#4D4D4D"/>
</svg>
