<svg width="42" height="31" viewBox="0 0 42 31" fill="none" xmlns="http://www.w3.org/2000/svg">
<path d="M19.092 13.64V20H17.988V18.992C17.732 19.344 17.408 19.612 17.016 19.796C16.624 19.98 16.192 20.072 15.72 20.072C15.104 20.072 14.552 19.936 14.064 19.664C13.576 19.392 13.192 19.012 12.912 18.524C12.64 18.028 12.504 17.46 12.504 16.82C12.504 16.18 12.64 15.616 12.912 15.128C13.192 14.64 13.576 14.26 14.064 13.988C14.552 13.716 15.104 13.58 15.72 13.58C16.176 13.58 16.596 13.668 16.98 13.844C17.364 14.012 17.684 14.264 17.94 14.6V13.64H19.092ZM15.816 19.064C16.216 19.064 16.58 18.972 16.908 18.788C17.236 18.596 17.492 18.332 17.676 17.996C17.86 17.652 17.952 17.26 17.952 16.82C17.952 16.38 17.86 15.992 17.676 15.656C17.492 15.312 17.236 15.048 16.908 14.864C16.58 14.68 16.216 14.588 15.816 14.588C15.408 14.588 15.04 14.68 14.712 14.864C14.392 15.048 14.136 15.312 13.944 15.656C13.76 15.992 13.668 16.38 13.668 16.82C13.668 17.26 13.76 17.652 13.944 17.996C14.136 18.332 14.392 18.596 14.712 18.788C15.04 18.972 15.408 19.064 15.816 19.064ZM22.3757 14.708C22.5757 14.34 22.8717 14.06 23.2637 13.868C23.6557 13.676 24.1317 13.58 24.6917 13.58V14.696C24.6277 14.688 24.5397 14.684 24.4277 14.684C23.8037 14.684 23.3117 14.872 22.9517 15.248C22.5997 15.616 22.4237 16.144 22.4237 16.832V20H21.2717V13.64H22.3757V14.708ZM29.4595 19.628C29.2915 19.772 29.0835 19.884 28.8355 19.964C28.5875 20.036 28.3315 20.072 28.0675 20.072C27.4275 20.072 26.9315 19.9 26.5795 19.556C26.2275 19.212 26.0515 18.72 26.0515 18.08V12.248H27.2035V13.64H29.0275V14.588H27.2035V18.032C27.2035 18.376 27.2875 18.64 27.4555 18.824C27.6315 19.008 27.8795 19.1 28.1995 19.1C28.5515 19.1 28.8515 19 29.0995 18.8L29.4595 19.628Z" fill="#4D4D4D"/>
<rect x="0.5" y="0.5" width="41" height="30" rx="3.5" stroke="#4D4D4D"/>
</svg>
