<svg width="74" height="31" viewBox="0 0 74 31" fill="none" xmlns="http://www.w3.org/2000/svg">
<path d="M15.864 20.072C15.216 20.072 14.636 19.932 14.124 19.652C13.62 19.372 13.224 18.988 12.936 18.5C12.648 18.004 12.504 17.444 12.504 16.82C12.504 16.196 12.648 15.64 12.936 15.152C13.224 14.656 13.62 14.272 14.124 14C14.636 13.72 15.216 13.58 15.864 13.58C16.44 13.58 16.952 13.696 17.4 13.928C17.856 14.16 18.208 14.496 18.456 14.936L17.58 15.5C17.38 15.196 17.132 14.968 16.836 14.816C16.54 14.664 16.212 14.588 15.852 14.588C15.436 14.588 15.06 14.68 14.724 14.864C14.396 15.048 14.136 15.312 13.944 15.656C13.76 15.992 13.668 16.38 13.668 16.82C13.668 17.268 13.76 17.664 13.944 18.008C14.136 18.344 14.396 18.604 14.724 18.788C15.06 18.972 15.436 19.064 15.852 19.064C16.212 19.064 16.54 18.988 16.836 18.836C17.132 18.684 17.38 18.456 17.58 18.152L18.456 18.704C18.208 19.144 17.856 19.484 17.4 19.724C16.952 19.956 16.44 20.072 15.864 20.072ZM21.0515 14.708C21.2515 14.34 21.5475 14.06 21.9395 13.868C22.3315 13.676 22.8075 13.58 23.3675 13.58V14.696C23.3035 14.688 23.2155 14.684 23.1035 14.684C22.4795 14.684 21.9875 14.872 21.6275 15.248C21.2755 15.616 21.0995 16.144 21.0995 16.832V20H19.9475V13.64H21.0515V14.708ZM27.5967 19.064C28.3567 19.064 28.9687 18.808 29.4327 18.296L30.0567 19.04C29.7767 19.376 29.4207 19.632 28.9887 19.808C28.5647 19.984 28.0887 20.072 27.5607 20.072C26.8887 20.072 26.2927 19.936 25.7727 19.664C25.2527 19.384 24.8487 18.996 24.5607 18.5C24.2807 18.004 24.1407 17.444 24.1407 16.82C24.1407 16.204 24.2767 15.648 24.5487 15.152C24.8287 14.656 25.2087 14.272 25.6887 14C26.1767 13.72 26.7247 13.58 27.3327 13.58C27.9087 13.58 28.4327 13.712 28.9047 13.976C29.3767 14.232 29.7527 14.596 30.0327 15.068C30.3127 15.54 30.4567 16.084 30.4647 16.7L25.4127 17.684C25.5727 18.124 25.8407 18.464 26.2167 18.704C26.6007 18.944 27.0607 19.064 27.5967 19.064ZM27.3327 14.552C26.9327 14.552 26.5727 14.644 26.2527 14.828C25.9407 15.012 25.6967 15.272 25.5207 15.608C25.3447 15.936 25.2567 16.32 25.2567 16.76V16.88L29.3247 16.112C29.2207 15.648 28.9887 15.272 28.6287 14.984C28.2687 14.696 27.8367 14.552 27.3327 14.552ZM38.0764 13.64V20H36.9724V18.992C36.7164 19.344 36.3924 19.612 36.0004 19.796C35.6084 19.98 35.1764 20.072 34.7044 20.072C34.0884 20.072 33.5364 19.936 33.0484 19.664C32.5604 19.392 32.1764 19.012 31.8964 18.524C31.6244 18.028 31.4884 17.46 31.4884 16.82C31.4884 16.18 31.6244 15.616 31.8964 15.128C32.1764 14.64 32.5604 14.26 33.0484 13.988C33.5364 13.716 34.0884 13.58 34.7044 13.58C35.1604 13.58 35.5804 13.668 35.9644 13.844C36.3484 14.012 36.6684 14.264 36.9244 14.6V13.64H38.0764ZM34.8004 19.064C35.2004 19.064 35.5644 18.972 35.8924 18.788C36.2204 18.596 36.4764 18.332 36.6604 17.996C36.8444 17.652 36.9364 17.26 36.9364 16.82C36.9364 16.38 36.8444 15.992 36.6604 15.656C36.4764 15.312 36.2204 15.048 35.8924 14.864C35.5644 14.68 35.2004 14.588 34.8004 14.588C34.3924 14.588 34.0244 14.68 33.6964 14.864C33.3764 15.048 33.1204 15.312 32.9284 15.656C32.7444 15.992 32.6524 16.38 32.6524 16.82C32.6524 17.26 32.7444 17.652 32.9284 17.996C33.1204 18.332 33.3764 18.596 33.6964 18.788C34.0244 18.972 34.3924 19.064 34.8004 19.064ZM43.6041 19.628C43.4361 19.772 43.2281 19.884 42.9801 19.964C42.7321 20.036 42.4761 20.072 42.2121 20.072C41.5721 20.072 41.0761 19.9 40.7241 19.556C40.3721 19.212 40.1961 18.72 40.1961 18.08V12.248H41.3481V13.64H43.1721V14.588H41.3481V18.032C41.3481 18.376 41.4321 18.64 41.6001 18.824C41.7761 19.008 42.0241 19.1 42.3441 19.1C42.6961 19.1 42.9961 19 43.2441 18.8L43.6041 19.628ZM44.9904 13.64H46.1424V20H44.9904V13.64ZM45.5664 12.416C45.3424 12.416 45.1544 12.344 45.0024 12.2C44.8584 12.056 44.7864 11.88 44.7864 11.672C44.7864 11.464 44.8584 11.288 45.0024 11.144C45.1544 10.992 45.3424 10.916 45.5664 10.916C45.7904 10.916 45.9744 10.988 46.1184 11.132C46.2704 11.268 46.3464 11.44 46.3464 11.648C46.3464 11.864 46.2704 12.048 46.1184 12.2C45.9744 12.344 45.7904 12.416 45.5664 12.416ZM53.97 13.64L51.186 20H50.01L47.226 13.64H48.426L50.61 18.74L52.842 13.64H53.97ZM57.7373 19.064C58.4973 19.064 59.1093 18.808 59.5733 18.296L60.1973 19.04C59.9173 19.376 59.5613 19.632 59.1293 19.808C58.7053 19.984 58.2293 20.072 57.7013 20.072C57.0293 20.072 56.4333 19.936 55.9133 19.664C55.3933 19.384 54.9893 18.996 54.7013 18.5C54.4213 18.004 54.2813 17.444 54.2813 16.82C54.2813 16.204 54.4173 15.648 54.6893 15.152C54.9693 14.656 55.3493 14.272 55.8293 14C56.3173 13.72 56.8653 13.58 57.4733 13.58C58.0493 13.58 58.5733 13.712 59.0453 13.976C59.5173 14.232 59.8933 14.596 60.1733 15.068C60.4533 15.54 60.5973 16.084 60.6053 16.7L55.5533 17.684C55.7133 18.124 55.9813 18.464 56.3573 18.704C56.7413 18.944 57.2013 19.064 57.7373 19.064ZM57.4733 14.552C57.0733 14.552 56.7133 14.644 56.3933 14.828C56.0813 15.012 55.8373 15.272 55.6613 15.608C55.4853 15.936 55.3973 16.32 55.3973 16.76V16.88L59.4653 16.112C59.3613 15.648 59.1293 15.272 58.7693 14.984C58.4093 14.696 57.9773 14.552 57.4733 14.552Z" fill="#4D4D4D"/>
<rect x="0.5" y="0.5" width="73" height="30" rx="3.5" stroke="#4D4D4D"/>
</svg>
