<svg width="98" height="31" viewBox="0 0 98 31" fill="none" xmlns="http://www.w3.org/2000/svg">
<path d="M19.092 13.64V20H17.988V18.992C17.732 19.344 17.408 19.612 17.016 19.796C16.624 19.98 16.192 20.072 15.72 20.072C15.104 20.072 14.552 19.936 14.064 19.664C13.576 19.392 13.192 19.012 12.912 18.524C12.64 18.028 12.504 17.46 12.504 16.82C12.504 16.18 12.64 15.616 12.912 15.128C13.192 14.64 13.576 14.26 14.064 13.988C14.552 13.716 15.104 13.58 15.72 13.58C16.176 13.58 16.596 13.668 16.98 13.844C17.364 14.012 17.684 14.264 17.94 14.6V13.64H19.092ZM15.816 19.064C16.216 19.064 16.58 18.972 16.908 18.788C17.236 18.596 17.492 18.332 17.676 17.996C17.86 17.652 17.952 17.26 17.952 16.82C17.952 16.38 17.86 15.992 17.676 15.656C17.492 15.312 17.236 15.048 16.908 14.864C16.58 14.68 16.216 14.588 15.816 14.588C15.408 14.588 15.04 14.68 14.712 14.864C14.392 15.048 14.136 15.312 13.944 15.656C13.76 15.992 13.668 16.38 13.668 16.82C13.668 17.26 13.76 17.652 13.944 17.996C14.136 18.332 14.392 18.596 14.712 18.788C15.04 18.972 15.408 19.064 15.816 19.064ZM27.1997 13.64V20H26.1077V19.04C25.8757 19.368 25.5677 19.624 25.1837 19.808C24.8077 19.984 24.3957 20.072 23.9477 20.072C23.0997 20.072 22.4317 19.84 21.9437 19.376C21.4557 18.904 21.2117 18.212 21.2117 17.3V13.64H22.3637V17.168C22.3637 17.784 22.5117 18.252 22.8077 18.572C23.1037 18.884 23.5277 19.04 24.0797 19.04C24.6877 19.04 25.1677 18.856 25.5197 18.488C25.8717 18.12 26.0477 17.6 26.0477 16.928V13.64H27.1997ZM32.7408 19.628C32.5728 19.772 32.3648 19.884 32.1168 19.964C31.8688 20.036 31.6128 20.072 31.3488 20.072C30.7088 20.072 30.2128 19.9 29.8608 19.556C29.5088 19.212 29.3328 18.72 29.3328 18.08V12.248H30.4848V13.64H32.3088V14.588H30.4848V18.032C30.4848 18.376 30.5688 18.64 30.7368 18.824C30.9128 19.008 31.1608 19.1 31.4808 19.1C31.8328 19.1 32.1328 19 32.3808 18.8L32.7408 19.628ZM36.6402 20.072C36.0082 20.072 35.4402 19.932 34.9362 19.652C34.4322 19.372 34.0362 18.988 33.7482 18.5C33.4682 18.004 33.3282 17.444 33.3282 16.82C33.3282 16.196 33.4682 15.64 33.7482 15.152C34.0362 14.656 34.4322 14.272 34.9362 14C35.4402 13.72 36.0082 13.58 36.6402 13.58C37.2722 13.58 37.8362 13.72 38.3322 14C38.8362 14.272 39.2282 14.656 39.5082 15.152C39.7962 15.64 39.9402 16.196 39.9402 16.82C39.9402 17.444 39.7962 18.004 39.5082 18.5C39.2282 18.988 38.8362 19.372 38.3322 19.652C37.8362 19.932 37.2722 20.072 36.6402 20.072ZM36.6402 19.064C37.0482 19.064 37.4122 18.972 37.7322 18.788C38.0602 18.596 38.3162 18.332 38.5002 17.996C38.6842 17.652 38.7762 17.26 38.7762 16.82C38.7762 16.38 38.6842 15.992 38.5002 15.656C38.3162 15.312 38.0602 15.048 37.7322 14.864C37.4122 14.68 37.0482 14.588 36.6402 14.588C36.2322 14.588 35.8642 14.68 35.5362 14.864C35.2162 15.048 34.9602 15.312 34.7682 15.656C34.5842 15.992 34.4922 16.38 34.4922 16.82C34.4922 17.26 34.5842 17.652 34.7682 17.996C34.9602 18.332 35.2162 18.596 35.5362 18.788C35.8642 18.972 36.2322 19.064 36.6402 19.064ZM49.4894 13.58C50.2894 13.58 50.9214 13.812 51.3854 14.276C51.8574 14.74 52.0934 15.428 52.0934 16.34V20H50.9414V16.472C50.9414 15.856 50.7974 15.392 50.5094 15.08C50.2294 14.768 49.8254 14.612 49.2974 14.612C48.7134 14.612 48.2494 14.796 47.9054 15.164C47.5614 15.524 47.3894 16.044 47.3894 16.724V20H46.2374V16.472C46.2374 15.856 46.0934 15.392 45.8054 15.08C45.5254 14.768 45.1214 14.612 44.5934 14.612C44.0094 14.612 43.5454 14.796 43.2014 15.164C42.8574 15.524 42.6854 16.044 42.6854 16.724V20H41.5334V13.64H42.6374V14.588C42.8694 14.26 43.1734 14.012 43.5494 13.844C43.9254 13.668 44.3534 13.58 44.8334 13.58C45.3294 13.58 45.7694 13.68 46.1534 13.88C46.5374 14.08 46.8334 14.372 47.0414 14.756C47.2814 14.388 47.6134 14.1 48.0374 13.892C48.4694 13.684 48.9534 13.58 49.4894 13.58ZM60.2483 13.64V20H59.1443V18.992C58.8883 19.344 58.5643 19.612 58.1723 19.796C57.7803 19.98 57.3483 20.072 56.8763 20.072C56.2603 20.072 55.7083 19.936 55.2203 19.664C54.7323 19.392 54.3483 19.012 54.0683 18.524C53.7963 18.028 53.6603 17.46 53.6603 16.82C53.6603 16.18 53.7963 15.616 54.0683 15.128C54.3483 14.64 54.7323 14.26 55.2203 13.988C55.7083 13.716 56.2603 13.58 56.8763 13.58C57.3323 13.58 57.7523 13.668 58.1363 13.844C58.5203 14.012 58.8403 14.264 59.0963 14.6V13.64H60.2483ZM56.9723 19.064C57.3723 19.064 57.7363 18.972 58.0643 18.788C58.3923 18.596 58.6483 18.332 58.8323 17.996C59.0163 17.652 59.1083 17.26 59.1083 16.82C59.1083 16.38 59.0163 15.992 58.8323 15.656C58.6483 15.312 58.3923 15.048 58.0643 14.864C57.7363 14.68 57.3723 14.588 56.9723 14.588C56.5643 14.588 56.1963 14.68 55.8683 14.864C55.5483 15.048 55.2923 15.312 55.1003 15.656C54.9163 15.992 54.8243 16.38 54.8243 16.82C54.8243 17.26 54.9163 17.652 55.1003 17.996C55.2923 18.332 55.5483 18.596 55.8683 18.788C56.1963 18.972 56.5643 19.064 56.9723 19.064ZM65.7759 19.628C65.6079 19.772 65.3999 19.884 65.1519 19.964C64.9039 20.036 64.6479 20.072 64.3839 20.072C63.7439 20.072 63.2479 19.9 62.8959 19.556C62.5439 19.212 62.3679 18.72 62.3679 18.08V12.248H63.5199V13.64H65.3439V14.588H63.5199V18.032C63.5199 18.376 63.6039 18.64 63.7719 18.824C63.9479 19.008 64.1959 19.1 64.5159 19.1C64.8679 19.1 65.1679 19 65.4159 18.8L65.7759 19.628ZM67.1623 13.64H68.3143V20H67.1623V13.64ZM67.7383 12.416C67.5143 12.416 67.3263 12.344 67.1743 12.2C67.0303 12.056 66.9583 11.88 66.9583 11.672C66.9583 11.464 67.0303 11.288 67.1743 11.144C67.3263 10.992 67.5143 10.916 67.7383 10.916C67.9623 10.916 68.1463 10.988 68.2903 11.132C68.4423 11.268 68.5183 11.44 68.5183 11.648C68.5183 11.864 68.4423 12.048 68.2903 12.2C68.1463 12.344 67.9623 12.416 67.7383 12.416ZM73.2379 20.072C72.6059 20.072 72.0379 19.932 71.5339 19.652C71.0299 19.372 70.6339 18.988 70.3459 18.5C70.0659 18.004 69.9259 17.444 69.9259 16.82C69.9259 16.196 70.0659 15.64 70.3459 15.152C70.6339 14.656 71.0299 14.272 71.5339 14C72.0379 13.72 72.6059 13.58 73.2379 13.58C73.8699 13.58 74.4339 13.72 74.9299 14C75.4339 14.272 75.8259 14.656 76.1059 15.152C76.3939 15.64 76.5379 16.196 76.5379 16.82C76.5379 17.444 76.3939 18.004 76.1059 18.5C75.8259 18.988 75.4339 19.372 74.9299 19.652C74.4339 19.932 73.8699 20.072 73.2379 20.072ZM73.2379 19.064C73.6459 19.064 74.0099 18.972 74.3299 18.788C74.6579 18.596 74.9139 18.332 75.0979 17.996C75.2819 17.652 75.3739 17.26 75.3739 16.82C75.3739 16.38 75.2819 15.992 75.0979 15.656C74.9139 15.312 74.6579 15.048 74.3299 14.864C74.0099 14.68 73.6459 14.588 73.2379 14.588C72.8299 14.588 72.4619 14.68 72.1339 14.864C71.8139 15.048 71.5579 15.312 71.3659 15.656C71.1819 15.992 71.0899 16.38 71.0899 16.82C71.0899 17.26 71.1819 17.652 71.3659 17.996C71.5579 18.332 71.8139 18.596 72.1339 18.788C72.4619 18.972 72.8299 19.064 73.2379 19.064ZM81.5271 13.58C82.3351 13.58 82.9751 13.816 83.4471 14.288C83.9271 14.752 84.1671 15.436 84.1671 16.34V20H83.0151V16.472C83.0151 15.856 82.8671 15.392 82.5711 15.08C82.2751 14.768 81.8511 14.612 81.2991 14.612C80.6751 14.612 80.1831 14.796 79.8231 15.164C79.4631 15.524 79.2831 16.044 79.2831 16.724V20H78.1311V13.64H79.2351V14.6C79.4671 14.272 79.7791 14.02 80.1711 13.844C80.5711 13.668 81.0231 13.58 81.5271 13.58Z" fill="#4D4D4D"/>
<rect x="0.5" y="0.5" width="97" height="30" rx="3.5" stroke="#4D4D4D"/>
</svg>
