<svg width="51" height="31" viewBox="0 0 51 31" fill="none" xmlns="http://www.w3.org/2000/svg">
<path d="M16.44 19.628C16.272 19.772 16.064 19.884 15.816 19.964C15.568 20.036 15.312 20.072 15.048 20.072C14.408 20.072 13.912 19.9 13.56 19.556C13.208 19.212 13.032 18.72 13.032 18.08V12.248H14.184V13.64H16.008V14.588H14.184V18.032C14.184 18.376 14.268 18.64 14.436 18.824C14.612 19.008 14.86 19.1 15.18 19.1C15.532 19.1 15.832 19 16.08 18.8L16.44 19.628ZM20.4834 19.064C21.2434 19.064 21.8554 18.808 22.3194 18.296L22.9434 19.04C22.6634 19.376 22.3074 19.632 21.8754 19.808C21.4514 19.984 20.9754 20.072 20.4474 20.072C19.7754 20.072 19.1794 19.936 18.6594 19.664C18.1394 19.384 17.7354 18.996 17.4474 18.5C17.1674 18.004 17.0274 17.444 17.0274 16.82C17.0274 16.204 17.1634 15.648 17.4354 15.152C17.7154 14.656 18.0954 14.272 18.5754 14C19.0634 13.72 19.6114 13.58 20.2194 13.58C20.7954 13.58 21.3194 13.712 21.7914 13.976C22.2634 14.232 22.6394 14.596 22.9194 15.068C23.1994 15.54 23.3434 16.084 23.3514 16.7L18.2994 17.684C18.4594 18.124 18.7274 18.464 19.1034 18.704C19.4874 18.944 19.9474 19.064 20.4834 19.064ZM20.2194 14.552C19.8194 14.552 19.4594 14.644 19.1394 14.828C18.8274 15.012 18.5834 15.272 18.4074 15.608C18.2314 15.936 18.1434 16.32 18.1434 16.76V16.88L22.2114 16.112C22.1074 15.648 21.8754 15.272 21.5154 14.984C21.1554 14.696 20.7234 14.552 20.2194 14.552ZM27.7351 20.072C27.0871 20.072 26.5071 19.932 25.9951 19.652C25.4911 19.372 25.0951 18.988 24.8071 18.5C24.5191 18.004 24.3751 17.444 24.3751 16.82C24.3751 16.196 24.5191 15.64 24.8071 15.152C25.0951 14.656 25.4911 14.272 25.9951 14C26.5071 13.72 27.0871 13.58 27.7351 13.58C28.3111 13.58 28.8231 13.696 29.2711 13.928C29.7271 14.16 30.0791 14.496 30.3271 14.936L29.4511 15.5C29.2511 15.196 29.0031 14.968 28.7071 14.816C28.4111 14.664 28.0831 14.588 27.7231 14.588C27.3071 14.588 26.9311 14.68 26.5951 14.864C26.2671 15.048 26.0071 15.312 25.8151 15.656C25.6311 15.992 25.5391 16.38 25.5391 16.82C25.5391 17.268 25.6311 17.664 25.8151 18.008C26.0071 18.344 26.2671 18.604 26.5951 18.788C26.9311 18.972 27.3071 19.064 27.7231 19.064C28.0831 19.064 28.4111 18.988 28.7071 18.836C29.0031 18.684 29.2511 18.456 29.4511 18.152L30.3271 18.704C30.0791 19.144 29.7271 19.484 29.2711 19.724C28.8231 19.956 28.3111 20.072 27.7351 20.072ZM35.1325 13.58C35.9405 13.58 36.5805 13.816 37.0525 14.288C37.5325 14.752 37.7725 15.436 37.7725 16.34V20H36.6205V16.472C36.6205 15.856 36.4725 15.392 36.1765 15.08C35.8805 14.768 35.4565 14.612 34.9045 14.612C34.2805 14.612 33.7885 14.796 33.4285 15.164C33.0685 15.524 32.8885 16.044 32.8885 16.724V20H31.7365V11.096H32.8885V14.54C33.1285 14.236 33.4405 14 33.8245 13.832C34.2165 13.664 34.6525 13.58 35.1325 13.58Z" fill="#4D4D4D"/>
<rect x="0.5" y="0.5" width="50" height="30" rx="3.5" stroke="#4D4D4D"/>
</svg>
