<svg width="69" height="31" viewBox="0 0 69 31" fill="none" xmlns="http://www.w3.org/2000/svg">
<path d="M22.788 13.64V17.156C22.788 18.092 22.556 18.812 22.092 19.316C21.628 19.82 20.956 20.072 20.076 20.072C19.036 20.072 18.316 19.692 17.916 18.932C17.708 19.316 17.424 19.604 17.064 19.796C16.712 19.98 16.272 20.072 15.744 20.072C14.856 20.072 14.18 19.82 13.716 19.316C13.26 18.812 13.032 18.092 13.032 17.156V13.64H14.184V17.048C14.184 17.728 14.308 18.232 14.556 18.56C14.804 18.88 15.2 19.04 15.744 19.04C16.288 19.04 16.688 18.876 16.944 18.548C17.208 18.22 17.34 17.72 17.34 17.048V13.64H18.492V17.048C18.492 17.72 18.62 18.22 18.876 18.548C19.14 18.876 19.544 19.04 20.088 19.04C20.624 19.04 21.016 18.88 21.264 18.56C21.512 18.232 21.636 17.728 21.636 17.048V13.64H22.788ZM27.7842 19.064C28.5442 19.064 29.1562 18.808 29.6202 18.296L30.2442 19.04C29.9642 19.376 29.6082 19.632 29.1762 19.808C28.7522 19.984 28.2762 20.072 27.7482 20.072C27.0762 20.072 26.4802 19.936 25.9602 19.664C25.4402 19.384 25.0362 18.996 24.7482 18.5C24.4682 18.004 24.3282 17.444 24.3282 16.82C24.3282 16.204 24.4642 15.648 24.7362 15.152C25.0162 14.656 25.3962 14.272 25.8762 14C26.3642 13.72 26.9122 13.58 27.5202 13.58C28.0962 13.58 28.6202 13.712 29.0922 13.976C29.5642 14.232 29.9402 14.596 30.2202 15.068C30.5002 15.54 30.6442 16.084 30.6522 16.7L25.6002 17.684C25.7602 18.124 26.0282 18.464 26.4042 18.704C26.7882 18.944 27.2482 19.064 27.7842 19.064ZM27.5202 14.552C27.1202 14.552 26.7602 14.644 26.4402 14.828C26.1282 15.012 25.8842 15.272 25.7082 15.608C25.5322 15.936 25.4442 16.32 25.4442 16.76V16.88L29.5122 16.112C29.4082 15.648 29.1762 15.272 28.8162 14.984C28.4562 14.696 28.0242 14.552 27.5202 14.552ZM38.2639 13.64V20H37.1599V18.992C36.9039 19.344 36.5799 19.612 36.1879 19.796C35.7959 19.98 35.3639 20.072 34.8919 20.072C34.2759 20.072 33.7239 19.936 33.2359 19.664C32.7479 19.392 32.3639 19.012 32.0839 18.524C31.8119 18.028 31.6759 17.46 31.6759 16.82C31.6759 16.18 31.8119 15.616 32.0839 15.128C32.3639 14.64 32.7479 14.26 33.2359 13.988C33.7239 13.716 34.2759 13.58 34.8919 13.58C35.3479 13.58 35.7679 13.668 36.1519 13.844C36.5359 14.012 36.8559 14.264 37.1119 14.6V13.64H38.2639ZM34.9879 19.064C35.3879 19.064 35.7519 18.972 36.0799 18.788C36.4079 18.596 36.6639 18.332 36.8479 17.996C37.0319 17.652 37.1239 17.26 37.1239 16.82C37.1239 16.38 37.0319 15.992 36.8479 15.656C36.6639 15.312 36.4079 15.048 36.0799 14.864C35.7519 14.68 35.3879 14.588 34.9879 14.588C34.5799 14.588 34.2119 14.68 33.8839 14.864C33.5639 15.048 33.3079 15.312 33.1159 15.656C32.9319 15.992 32.8399 16.38 32.8399 16.82C32.8399 17.26 32.9319 17.652 33.1159 17.996C33.3079 18.332 33.5639 18.596 33.8839 18.788C34.2119 18.972 34.5799 19.064 34.9879 19.064ZM42.3756 20.072C41.7596 20.072 41.2836 19.904 40.9476 19.568C40.6116 19.224 40.4436 18.744 40.4436 18.128V11.096H41.5956V18.032C41.5956 18.376 41.6756 18.64 41.8356 18.824C42.0036 19.008 42.2516 19.1 42.5796 19.1C42.7796 19.1 42.9676 19.06 43.1436 18.98L43.2036 19.928C42.9396 20.024 42.6636 20.072 42.3756 20.072ZM47.647 19.628C47.479 19.772 47.271 19.884 47.023 19.964C46.775 20.036 46.519 20.072 46.255 20.072C45.615 20.072 45.119 19.9 44.767 19.556C44.415 19.212 44.239 18.72 44.239 18.08V12.248H45.391V13.64H47.215V14.588H45.391V18.032C45.391 18.376 45.475 18.64 45.643 18.824C45.819 19.008 46.067 19.1 46.387 19.1C46.739 19.1 47.039 19 47.287 18.8L47.647 19.628ZM52.4294 13.58C53.2374 13.58 53.8774 13.816 54.3494 14.288C54.8294 14.752 55.0694 15.436 55.0694 16.34V20H53.9174V16.472C53.9174 15.856 53.7694 15.392 53.4734 15.08C53.1774 14.768 52.7534 14.612 52.2014 14.612C51.5774 14.612 51.0854 14.796 50.7254 15.164C50.3654 15.524 50.1854 16.044 50.1854 16.724V20H49.0334V11.096H50.1854V14.54C50.4254 14.236 50.7374 14 51.1214 13.832C51.5134 13.664 51.9494 13.58 52.4294 13.58Z" fill="#4D4D4D"/>
<rect x="0.5" y="0.5" width="68" height="30" rx="3.5" stroke="#4D4D4D"/>
</svg>
