<svg width="65" height="31" viewBox="0 0 65 31" fill="none" xmlns="http://www.w3.org/2000/svg">
<path d="M16.488 13.58C17.296 13.58 17.936 13.816 18.408 14.288C18.888 14.752 19.128 15.436 19.128 16.34V20H17.976V16.472C17.976 15.856 17.828 15.392 17.532 15.08C17.236 14.768 16.812 14.612 16.26 14.612C15.636 14.612 15.144 14.796 14.784 15.164C14.424 15.524 14.244 16.044 14.244 16.724V20H13.092V11.096H14.244V14.54C14.484 14.236 14.796 14 15.18 13.832C15.572 13.664 16.008 13.58 16.488 13.58ZM24.1631 19.064C24.9231 19.064 25.5351 18.808 25.9991 18.296L26.6231 19.04C26.3431 19.376 25.9871 19.632 25.5551 19.808C25.1311 19.984 24.6551 20.072 24.1271 20.072C23.4551 20.072 22.8591 19.936 22.3391 19.664C21.8191 19.384 21.4151 18.996 21.1271 18.5C20.8471 18.004 20.7071 17.444 20.7071 16.82C20.7071 16.204 20.8431 15.648 21.1151 15.152C21.3951 14.656 21.7751 14.272 22.2551 14C22.7431 13.72 23.2911 13.58 23.8991 13.58C24.4751 13.58 24.9991 13.712 25.4711 13.976C25.9431 14.232 26.3191 14.596 26.5991 15.068C26.8791 15.54 27.0231 16.084 27.0311 16.7L21.9791 17.684C22.1391 18.124 22.4071 18.464 22.7831 18.704C23.1671 18.944 23.6271 19.064 24.1631 19.064ZM23.8991 14.552C23.4991 14.552 23.1391 14.644 22.8191 14.828C22.5071 15.012 22.2631 15.272 22.0871 15.608C21.9111 15.936 21.8231 16.32 21.8231 16.76V16.88L25.8911 16.112C25.7871 15.648 25.5551 15.272 25.1951 14.984C24.8351 14.696 24.4031 14.552 23.8991 14.552ZM34.6428 13.64V20H33.5388V18.992C33.2828 19.344 32.9588 19.612 32.5668 19.796C32.1748 19.98 31.7428 20.072 31.2708 20.072C30.6548 20.072 30.1028 19.936 29.6148 19.664C29.1268 19.392 28.7428 19.012 28.4628 18.524C28.1908 18.028 28.0548 17.46 28.0548 16.82C28.0548 16.18 28.1908 15.616 28.4628 15.128C28.7428 14.64 29.1268 14.26 29.6148 13.988C30.1028 13.716 30.6548 13.58 31.2708 13.58C31.7268 13.58 32.1468 13.668 32.5308 13.844C32.9148 14.012 33.2348 14.264 33.4908 14.6V13.64H34.6428ZM31.3668 19.064C31.7668 19.064 32.1308 18.972 32.4588 18.788C32.7868 18.596 33.0428 18.332 33.2268 17.996C33.4108 17.652 33.5028 17.26 33.5028 16.82C33.5028 16.38 33.4108 15.992 33.2268 15.656C33.0428 15.312 32.7868 15.048 32.4588 14.864C32.1308 14.68 31.7668 14.588 31.3668 14.588C30.9588 14.588 30.5908 14.68 30.2628 14.864C29.9428 15.048 29.6868 15.312 29.4948 15.656C29.3108 15.992 29.2188 16.38 29.2188 16.82C29.2188 17.26 29.3108 17.652 29.4948 17.996C29.6868 18.332 29.9428 18.596 30.2628 18.788C30.5908 18.972 30.9588 19.064 31.3668 19.064ZM38.7545 20.072C38.1385 20.072 37.6625 19.904 37.3265 19.568C36.9905 19.224 36.8225 18.744 36.8225 18.128V11.096H37.9745V18.032C37.9745 18.376 38.0545 18.64 38.2145 18.824C38.3825 19.008 38.6305 19.1 38.9585 19.1C39.1585 19.1 39.3465 19.06 39.5225 18.98L39.5825 19.928C39.3185 20.024 39.0425 20.072 38.7545 20.072ZM44.0259 19.628C43.8579 19.772 43.6499 19.884 43.4019 19.964C43.1539 20.036 42.8979 20.072 42.6339 20.072C41.9939 20.072 41.4979 19.9 41.1459 19.556C40.7939 19.212 40.6179 18.72 40.6179 18.08V12.248H41.7699V13.64H43.5939V14.588H41.7699V18.032C41.7699 18.376 41.8539 18.64 42.0219 18.824C42.1979 19.008 42.4459 19.1 42.7659 19.1C43.1179 19.1 43.4179 19 43.6659 18.8L44.0259 19.628ZM48.8083 13.58C49.6163 13.58 50.2563 13.816 50.7283 14.288C51.2083 14.752 51.4483 15.436 51.4483 16.34V20H50.2963V16.472C50.2963 15.856 50.1483 15.392 49.8523 15.08C49.5563 14.768 49.1323 14.612 48.5803 14.612C47.9563 14.612 47.4643 14.796 47.1043 15.164C46.7443 15.524 46.5643 16.044 46.5643 16.724V20H45.4123V11.096H46.5643V14.54C46.8043 14.236 47.1163 14 47.5003 13.832C47.8923 13.664 48.3283 13.58 48.8083 13.58Z" fill="#4D4D4D"/>
<rect x="0.5" y="0.5" width="64" height="30" rx="3.5" stroke="#4D4D4D"/>
</svg>
