<svg width="73" height="31" viewBox="0 0 73 31" fill="none" xmlns="http://www.w3.org/2000/svg">
<path d="M15.864 20.072C15.216 20.072 14.636 19.932 14.124 19.652C13.62 19.372 13.224 18.988 12.936 18.5C12.648 18.004 12.504 17.444 12.504 16.82C12.504 16.196 12.648 15.64 12.936 15.152C13.224 14.656 13.62 14.272 14.124 14C14.636 13.72 15.216 13.58 15.864 13.58C16.44 13.58 16.952 13.696 17.4 13.928C17.856 14.16 18.208 14.496 18.456 14.936L17.58 15.5C17.38 15.196 17.132 14.968 16.836 14.816C16.54 14.664 16.212 14.588 15.852 14.588C15.436 14.588 15.06 14.68 14.724 14.864C14.396 15.048 14.136 15.312 13.944 15.656C13.76 15.992 13.668 16.38 13.668 16.82C13.668 17.268 13.76 17.664 13.944 18.008C14.136 18.344 14.396 18.604 14.724 18.788C15.06 18.972 15.436 19.064 15.852 19.064C16.212 19.064 16.54 18.988 16.836 18.836C17.132 18.684 17.38 18.456 17.58 18.152L18.456 18.704C18.208 19.144 17.856 19.484 17.4 19.724C16.952 19.956 16.44 20.072 15.864 20.072ZM22.5777 20.072C21.9457 20.072 21.3777 19.932 20.8737 19.652C20.3697 19.372 19.9737 18.988 19.6857 18.5C19.4057 18.004 19.2657 17.444 19.2657 16.82C19.2657 16.196 19.4057 15.64 19.6857 15.152C19.9737 14.656 20.3697 14.272 20.8737 14C21.3777 13.72 21.9457 13.58 22.5777 13.58C23.2097 13.58 23.7737 13.72 24.2697 14C24.7737 14.272 25.1657 14.656 25.4457 15.152C25.7337 15.64 25.8777 16.196 25.8777 16.82C25.8777 17.444 25.7337 18.004 25.4457 18.5C25.1657 18.988 24.7737 19.372 24.2697 19.652C23.7737 19.932 23.2097 20.072 22.5777 20.072ZM22.5777 19.064C22.9857 19.064 23.3497 18.972 23.6697 18.788C23.9977 18.596 24.2537 18.332 24.4377 17.996C24.6217 17.652 24.7137 17.26 24.7137 16.82C24.7137 16.38 24.6217 15.992 24.4377 15.656C24.2537 15.312 23.9977 15.048 23.6697 14.864C23.3497 14.68 22.9857 14.588 22.5777 14.588C22.1697 14.588 21.8017 14.68 21.4737 14.864C21.1537 15.048 20.8977 15.312 20.7057 15.656C20.5217 15.992 20.4297 16.38 20.4297 16.82C20.4297 17.26 20.5217 17.652 20.7057 17.996C20.8977 18.332 21.1537 18.596 21.4737 18.788C21.8017 18.972 22.1697 19.064 22.5777 19.064ZM32.9231 13.64L30.1391 20H28.9631L26.1791 13.64H27.3791L29.5631 18.74L31.7951 13.64H32.9231ZM33.9983 13.64H35.1503V20H33.9983V13.64ZM34.5743 12.416C34.3503 12.416 34.1623 12.344 34.0103 12.2C33.8663 12.056 33.7943 11.88 33.7943 11.672C33.7943 11.464 33.8663 11.288 34.0103 11.144C34.1623 10.992 34.3503 10.916 34.5743 10.916C34.7983 10.916 34.9823 10.988 35.1263 11.132C35.2783 11.268 35.3543 11.44 35.3543 11.648C35.3543 11.864 35.2783 12.048 35.1263 12.2C34.9823 12.344 34.7983 12.416 34.5743 12.416ZM43.3498 11.096V20H42.2458V18.992C41.9898 19.344 41.6658 19.612 41.2738 19.796C40.8818 19.98 40.4498 20.072 39.9778 20.072C39.3618 20.072 38.8098 19.936 38.3218 19.664C37.8338 19.392 37.4498 19.012 37.1698 18.524C36.8978 18.028 36.7618 17.46 36.7618 16.82C36.7618 16.18 36.8978 15.616 37.1698 15.128C37.4498 14.64 37.8338 14.26 38.3218 13.988C38.8098 13.716 39.3618 13.58 39.9778 13.58C40.4338 13.58 40.8538 13.668 41.2378 13.844C41.6218 14.012 41.9418 14.264 42.1978 14.6V11.096H43.3498ZM40.0738 19.064C40.4738 19.064 40.8378 18.972 41.1658 18.788C41.4938 18.596 41.7498 18.332 41.9338 17.996C42.1178 17.652 42.2098 17.26 42.2098 16.82C42.2098 16.38 42.1178 15.992 41.9338 15.656C41.7498 15.312 41.4938 15.048 41.1658 14.864C40.8378 14.68 40.4738 14.588 40.0738 14.588C39.6658 14.588 39.2978 14.68 38.9698 14.864C38.6498 15.048 38.3938 15.312 38.2018 15.656C38.0178 15.992 37.9258 16.38 37.9258 16.82C37.9258 17.26 38.0178 17.652 38.2018 17.996C38.3938 18.332 38.6498 18.596 38.9698 18.788C39.2978 18.972 39.6658 19.064 40.0738 19.064ZM45.1215 16.208H48.3495V17.204H45.1215V16.208ZM52.0003 11.6V20H50.8123V12.644H48.9163V11.6H52.0003ZM56.5617 11.504C57.6897 11.504 58.5577 11.868 59.1657 12.596C59.7817 13.324 60.0897 14.356 60.0897 15.692C60.0897 16.628 59.9217 17.428 59.5857 18.092C59.2577 18.748 58.7937 19.248 58.1937 19.592C57.6017 19.928 56.9097 20.096 56.1177 20.096C55.7097 20.096 55.3257 20.056 54.9657 19.976C54.6057 19.888 54.2937 19.764 54.0297 19.604L54.4857 18.668C54.8937 18.932 55.4337 19.064 56.1057 19.064C56.9777 19.064 57.6577 18.796 58.1457 18.26C58.6417 17.716 58.8897 16.928 58.8897 15.896V15.596C58.6497 15.956 58.3177 16.232 57.8937 16.424C57.4697 16.608 56.9937 16.7 56.4657 16.7C55.9137 16.7 55.4177 16.596 54.9777 16.388C54.5457 16.18 54.2057 15.884 53.9577 15.5C53.7177 15.108 53.5977 14.66 53.5977 14.156C53.5977 13.628 53.7257 13.164 53.9817 12.764C54.2457 12.364 54.6017 12.056 55.0497 11.84C55.4977 11.616 56.0017 11.504 56.5617 11.504ZM56.6697 15.728C57.0457 15.728 57.3817 15.656 57.6777 15.512C57.9737 15.368 58.2017 15.172 58.3617 14.924C58.5297 14.676 58.6137 14.4 58.6137 14.096C58.6137 13.8 58.5337 13.532 58.3737 13.292C58.2217 13.044 57.9937 12.848 57.6897 12.704C57.3937 12.552 57.0337 12.476 56.6097 12.476C56.0577 12.476 55.6097 12.624 55.2657 12.92C54.9297 13.216 54.7617 13.612 54.7617 14.108C54.7617 14.604 54.9337 15 55.2777 15.296C55.6217 15.584 56.0857 15.728 56.6697 15.728Z" fill="#4D4D4D"/>
<rect x="0.5" y="0.5" width="72" height="30" rx="3.5" stroke="#4D4D4D"/>
</svg>
