<svg width="119" height="31" viewBox="0 0 119 31" fill="none" xmlns="http://www.w3.org/2000/svg">
<path d="M22.788 13.64V17.156C22.788 18.092 22.556 18.812 22.092 19.316C21.628 19.82 20.956 20.072 20.076 20.072C19.036 20.072 18.316 19.692 17.916 18.932C17.708 19.316 17.424 19.604 17.064 19.796C16.712 19.98 16.272 20.072 15.744 20.072C14.856 20.072 14.18 19.82 13.716 19.316C13.26 18.812 13.032 18.092 13.032 17.156V13.64H14.184V17.048C14.184 17.728 14.308 18.232 14.556 18.56C14.804 18.88 15.2 19.04 15.744 19.04C16.288 19.04 16.688 18.876 16.944 18.548C17.208 18.22 17.34 17.72 17.34 17.048V13.64H18.492V17.048C18.492 17.72 18.62 18.22 18.876 18.548C19.14 18.876 19.544 19.04 20.088 19.04C20.624 19.04 21.016 18.88 21.264 18.56C21.512 18.232 21.636 17.728 21.636 17.048V13.64H22.788ZM27.6402 20.072C27.0082 20.072 26.4402 19.932 25.9362 19.652C25.4322 19.372 25.0362 18.988 24.7482 18.5C24.4682 18.004 24.3282 17.444 24.3282 16.82C24.3282 16.196 24.4682 15.64 24.7482 15.152C25.0362 14.656 25.4322 14.272 25.9362 14C26.4402 13.72 27.0082 13.58 27.6402 13.58C28.2722 13.58 28.8362 13.72 29.3322 14C29.8362 14.272 30.2282 14.656 30.5082 15.152C30.7962 15.64 30.9402 16.196 30.9402 16.82C30.9402 17.444 30.7962 18.004 30.5082 18.5C30.2282 18.988 29.8362 19.372 29.3322 19.652C28.8362 19.932 28.2722 20.072 27.6402 20.072ZM27.6402 19.064C28.0482 19.064 28.4122 18.972 28.7322 18.788C29.0602 18.596 29.3162 18.332 29.5002 17.996C29.6842 17.652 29.7762 17.26 29.7762 16.82C29.7762 16.38 29.6842 15.992 29.5002 15.656C29.3162 15.312 29.0602 15.048 28.7322 14.864C28.4122 14.68 28.0482 14.588 27.6402 14.588C27.2322 14.588 26.8642 14.68 26.5362 14.864C26.2162 15.048 25.9602 15.312 25.7682 15.656C25.5842 15.992 25.4922 16.38 25.4922 16.82C25.4922 17.26 25.5842 17.652 25.7682 17.996C25.9602 18.332 26.2162 18.596 26.5362 18.788C26.8642 18.972 27.2322 19.064 27.6402 19.064ZM40.4894 13.58C41.2894 13.58 41.9214 13.812 42.3854 14.276C42.8574 14.74 43.0934 15.428 43.0934 16.34V20H41.9414V16.472C41.9414 15.856 41.7974 15.392 41.5094 15.08C41.2294 14.768 40.8254 14.612 40.2974 14.612C39.7134 14.612 39.2494 14.796 38.9054 15.164C38.5614 15.524 38.3894 16.044 38.3894 16.724V20H37.2374V16.472C37.2374 15.856 37.0934 15.392 36.8054 15.08C36.5254 14.768 36.1214 14.612 35.5934 14.612C35.0094 14.612 34.5454 14.796 34.2014 15.164C33.8574 15.524 33.6854 16.044 33.6854 16.724V20H32.5334V13.64H33.6374V14.588C33.8694 14.26 34.1734 14.012 34.5494 13.844C34.9254 13.668 35.3534 13.58 35.8334 13.58C36.3294 13.58 36.7694 13.68 37.1534 13.88C37.5374 14.08 37.8334 14.372 38.0414 14.756C38.2814 14.388 38.6134 14.1 39.0374 13.892C39.4694 13.684 39.9534 13.58 40.4894 13.58ZM48.1163 19.064C48.8763 19.064 49.4883 18.808 49.9523 18.296L50.5763 19.04C50.2963 19.376 49.9403 19.632 49.5083 19.808C49.0843 19.984 48.6083 20.072 48.0803 20.072C47.4083 20.072 46.8123 19.936 46.2923 19.664C45.7723 19.384 45.3683 18.996 45.0803 18.5C44.8003 18.004 44.6603 17.444 44.6603 16.82C44.6603 16.204 44.7963 15.648 45.0683 15.152C45.3483 14.656 45.7283 14.272 46.2083 14C46.6963 13.72 47.2443 13.58 47.8523 13.58C48.4283 13.58 48.9523 13.712 49.4243 13.976C49.8963 14.232 50.2723 14.596 50.5523 15.068C50.8323 15.54 50.9763 16.084 50.9843 16.7L45.9323 17.684C46.0923 18.124 46.3603 18.464 46.7363 18.704C47.1203 18.944 47.5803 19.064 48.1163 19.064ZM47.8523 14.552C47.4523 14.552 47.0923 14.644 46.7723 14.828C46.4603 15.012 46.2163 15.272 46.0403 15.608C45.8643 15.936 45.7763 16.32 45.7763 16.76V16.88L49.8443 16.112C49.7403 15.648 49.5083 15.272 49.1483 14.984C48.7883 14.696 48.3563 14.552 47.8523 14.552ZM55.9919 13.58C56.7999 13.58 57.4399 13.816 57.9119 14.288C58.3919 14.752 58.6319 15.436 58.6319 16.34V20H57.4799V16.472C57.4799 15.856 57.3319 15.392 57.0359 15.08C56.7399 14.768 56.3159 14.612 55.7639 14.612C55.1399 14.612 54.6479 14.796 54.2879 15.164C53.9279 15.524 53.7479 16.044 53.7479 16.724V20H52.5959V13.64H53.6999V14.6C53.9319 14.272 54.2439 14.02 54.6359 13.844C55.0359 13.668 55.4879 13.58 55.9919 13.58ZM60.9698 11.024C61.1938 11.024 61.3778 11.104 61.5218 11.264C61.6738 11.416 61.7498 11.608 61.7498 11.84C61.7498 11.96 61.7378 12.08 61.7138 12.2C61.6898 12.312 61.6378 12.476 61.5578 12.692L60.9818 14.372H60.2258L60.6698 12.584C60.5178 12.528 60.3938 12.436 60.2978 12.308C60.2098 12.172 60.1658 12.016 60.1658 11.84C60.1658 11.6 60.2418 11.404 60.3938 11.252C60.5458 11.1 60.7378 11.024 60.9698 11.024ZM65.0254 20.072C64.5054 20.072 64.0054 20.004 63.5254 19.868C63.0454 19.724 62.6694 19.544 62.3974 19.328L62.8774 18.416C63.1574 18.616 63.4974 18.776 63.8974 18.896C64.2974 19.016 64.7014 19.076 65.1094 19.076C66.1174 19.076 66.6214 18.788 66.6214 18.212C66.6214 18.02 66.5534 17.868 66.4174 17.756C66.2814 17.644 66.1094 17.564 65.9014 17.516C65.7014 17.46 65.4134 17.4 65.0374 17.336C64.5254 17.256 64.1054 17.164 63.7774 17.06C63.4574 16.956 63.1814 16.78 62.9494 16.532C62.7174 16.284 62.6014 15.936 62.6014 15.488C62.6014 14.912 62.8414 14.452 63.3214 14.108C63.8014 13.756 64.4454 13.58 65.2534 13.58C65.6774 13.58 66.1014 13.632 66.5254 13.736C66.9494 13.84 67.2974 13.98 67.5694 14.156L67.0774 15.068C66.5574 14.732 65.9454 14.564 65.2414 14.564C64.7534 14.564 64.3814 14.644 64.1254 14.804C63.8694 14.964 63.7414 15.176 63.7414 15.44C63.7414 15.648 63.8134 15.812 63.9574 15.932C64.1014 16.052 64.2774 16.14 64.4854 16.196C64.7014 16.252 65.0014 16.316 65.3854 16.388C65.8974 16.476 66.3094 16.572 66.6214 16.676C66.9414 16.772 67.2134 16.94 67.4374 17.18C67.6614 17.42 67.7734 17.756 67.7734 18.188C67.7734 18.764 67.5254 19.224 67.0294 19.568C66.5414 19.904 65.8734 20.072 65.0254 20.072ZM73.5398 14.708C73.7398 14.34 74.0358 14.06 74.4277 13.868C74.8198 13.676 75.2958 13.58 75.8558 13.58V14.696C75.7918 14.688 75.7038 14.684 75.5918 14.684C74.9678 14.684 74.4758 14.872 74.1158 15.248C73.7638 15.616 73.5878 16.144 73.5878 16.832V20H72.4358V13.64H73.5398V14.708ZM77.2756 13.64H78.4276V20H77.2756V13.64ZM77.8516 12.416C77.6276 12.416 77.4396 12.344 77.2876 12.2C77.1436 12.056 77.0716 11.88 77.0716 11.672C77.0716 11.464 77.1436 11.288 77.2876 11.144C77.4396 10.992 77.6276 10.916 77.8516 10.916C78.0756 10.916 78.2596 10.988 78.4036 11.132C78.5556 11.268 78.6316 11.44 78.6316 11.648C78.6316 11.864 78.5556 12.048 78.4036 12.2C78.2596 12.344 78.0756 12.416 77.8516 12.416ZM86.7112 13.64V19.136C86.7112 20.248 86.4352 21.068 85.8832 21.596C85.3312 22.132 84.5072 22.4 83.4112 22.4C82.8112 22.4 82.2392 22.316 81.6952 22.148C81.1512 21.988 80.7112 21.756 80.3752 21.452L80.9272 20.564C81.2232 20.82 81.5872 21.02 82.0192 21.164C82.4592 21.316 82.9112 21.392 83.3752 21.392C84.1192 21.392 84.6672 21.216 85.0192 20.864C85.3792 20.512 85.5592 19.976 85.5592 19.256V18.752C85.2872 19.08 84.9512 19.328 84.5512 19.496C84.1592 19.656 83.7312 19.736 83.2672 19.736C82.6592 19.736 82.1072 19.608 81.6112 19.352C81.1232 19.088 80.7392 18.724 80.4592 18.26C80.1792 17.788 80.0392 17.252 80.0392 16.652C80.0392 16.052 80.1792 15.52 80.4592 15.056C80.7392 14.584 81.1232 14.22 81.6112 13.964C82.1072 13.708 82.6592 13.58 83.2672 13.58C83.7472 13.58 84.1912 13.668 84.5992 13.844C85.0152 14.02 85.3552 14.28 85.6192 14.624V13.64H86.7112ZM83.3992 18.728C83.8152 18.728 84.1872 18.64 84.5152 18.464C84.8512 18.288 85.1112 18.044 85.2952 17.732C85.4872 17.412 85.5832 17.052 85.5832 16.652C85.5832 16.036 85.3792 15.54 84.9712 15.164C84.5632 14.78 84.0392 14.588 83.3992 14.588C82.7512 14.588 82.2232 14.78 81.8152 15.164C81.4072 15.54 81.2032 16.036 81.2032 16.652C81.2032 17.052 81.2952 17.412 81.4792 17.732C81.6712 18.044 81.9312 18.288 82.2592 18.464C82.5952 18.64 82.9752 18.728 83.3992 18.728ZM92.3083 13.58C93.1163 13.58 93.7563 13.816 94.2283 14.288C94.7083 14.752 94.9483 15.436 94.9483 16.34V20H93.7963V16.472C93.7963 15.856 93.6483 15.392 93.3523 15.08C93.0563 14.768 92.6323 14.612 92.0803 14.612C91.4563 14.612 90.9643 14.796 90.6043 15.164C90.2443 15.524 90.0643 16.044 90.0643 16.724V20H88.9123V11.096H90.0643V14.54C90.3043 14.236 90.6163 14 91.0003 13.832C91.3923 13.664 91.8283 13.58 92.3083 13.58ZM100.428 19.628C100.26 19.772 100.052 19.884 99.8043 19.964C99.5563 20.036 99.3003 20.072 99.0363 20.072C98.3963 20.072 97.9003 19.9 97.5483 19.556C97.1963 19.212 97.0203 18.72 97.0203 18.08V12.248H98.1723V13.64H99.9963V14.588H98.1723V18.032C98.1723 18.376 98.2563 18.64 98.4243 18.824C98.6003 19.008 98.8483 19.1 99.1683 19.1C99.5203 19.1 99.8203 19 100.068 18.8L100.428 19.628ZM103.639 20.072C103.119 20.072 102.619 20.004 102.139 19.868C101.659 19.724 101.283 19.544 101.011 19.328L101.491 18.416C101.771 18.616 102.111 18.776 102.511 18.896C102.911 19.016 103.315 19.076 103.723 19.076C104.731 19.076 105.235 18.788 105.235 18.212C105.235 18.02 105.167 17.868 105.031 17.756C104.895 17.644 104.723 17.564 104.515 17.516C104.315 17.46 104.027 17.4 103.651 17.336C103.139 17.256 102.719 17.164 102.391 17.06C102.071 16.956 101.795 16.78 101.563 16.532C101.331 16.284 101.215 15.936 101.215 15.488C101.215 14.912 101.455 14.452 101.935 14.108C102.415 13.756 103.059 13.58 103.867 13.58C104.291 13.58 104.715 13.632 105.139 13.736C105.563 13.84 105.911 13.98 106.183 14.156L105.691 15.068C105.171 14.732 104.559 14.564 103.855 14.564C103.367 14.564 102.995 14.644 102.739 14.804C102.483 14.964 102.355 15.176 102.355 15.44C102.355 15.648 102.427 15.812 102.571 15.932C102.715 16.052 102.891 16.14 103.099 16.196C103.315 16.252 103.615 16.316 103.999 16.388C104.511 16.476 104.923 16.572 105.235 16.676C105.555 16.772 105.827 16.94 106.051 17.18C106.275 17.42 106.387 17.756 106.387 18.188C106.387 18.764 106.139 19.224 105.643 19.568C105.155 19.904 104.487 20.072 103.639 20.072Z" fill="#4D4D4D"/>
<rect x="0.5" y="0.5" width="118" height="30" rx="3.5" stroke="#4D4D4D"/>
</svg>
