<svg width="96" height="31" viewBox="0 0 96 31" fill="none" xmlns="http://www.w3.org/2000/svg">
<path d="M14.916 20.072C14.396 20.072 13.896 20.004 13.416 19.868C12.936 19.724 12.56 19.544 12.288 19.328L12.768 18.416C13.048 18.616 13.388 18.776 13.788 18.896C14.188 19.016 14.592 19.076 15 19.076C16.008 19.076 16.512 18.788 16.512 18.212C16.512 18.02 16.444 17.868 16.308 17.756C16.172 17.644 16 17.564 15.792 17.516C15.592 17.46 15.304 17.4 14.928 17.336C14.416 17.256 13.996 17.164 13.668 17.06C13.348 16.956 13.072 16.78 12.84 16.532C12.608 16.284 12.492 15.936 12.492 15.488C12.492 14.912 12.732 14.452 13.212 14.108C13.692 13.756 14.336 13.58 15.144 13.58C15.568 13.58 15.992 13.632 16.416 13.736C16.84 13.84 17.188 13.98 17.46 14.156L16.968 15.068C16.448 14.732 15.836 14.564 15.132 14.564C14.644 14.564 14.272 14.644 14.016 14.804C13.76 14.964 13.632 15.176 13.632 15.44C13.632 15.648 13.704 15.812 13.848 15.932C13.992 16.052 14.168 16.14 14.376 16.196C14.592 16.252 14.892 16.316 15.276 16.388C15.788 16.476 16.2 16.572 16.512 16.676C16.832 16.772 17.104 16.94 17.328 17.18C17.552 17.42 17.664 17.756 17.664 18.188C17.664 18.764 17.416 19.224 16.92 19.568C16.432 19.904 15.764 20.072 14.916 20.072ZM21.9717 19.064C22.7317 19.064 23.3437 18.808 23.8077 18.296L24.4317 19.04C24.1517 19.376 23.7957 19.632 23.3637 19.808C22.9397 19.984 22.4637 20.072 21.9357 20.072C21.2637 20.072 20.6677 19.936 20.1477 19.664C19.6277 19.384 19.2237 18.996 18.9357 18.5C18.6557 18.004 18.5157 17.444 18.5157 16.82C18.5157 16.204 18.6517 15.648 18.9237 15.152C19.2037 14.656 19.5837 14.272 20.0637 14C20.5517 13.72 21.0997 13.58 21.7077 13.58C22.2837 13.58 22.8077 13.712 23.2797 13.976C23.7517 14.232 24.1277 14.596 24.4077 15.068C24.6877 15.54 24.8317 16.084 24.8397 16.7L19.7877 17.684C19.9477 18.124 20.2157 18.464 20.5917 18.704C20.9757 18.944 21.4357 19.064 21.9717 19.064ZM21.7077 14.552C21.3077 14.552 20.9477 14.644 20.6277 14.828C20.3157 15.012 20.0717 15.272 19.8957 15.608C19.7197 15.936 19.6317 16.32 19.6317 16.76V16.88L23.6997 16.112C23.5957 15.648 23.3637 15.272 23.0037 14.984C22.6437 14.696 22.2117 14.552 21.7077 14.552ZM28.3834 20.072C27.7674 20.072 27.2914 19.904 26.9554 19.568C26.6194 19.224 26.4514 18.744 26.4514 18.128V11.096H27.6034V18.032C27.6034 18.376 27.6834 18.64 27.8434 18.824C28.0114 19.008 28.2594 19.1 28.5874 19.1C28.7874 19.1 28.9754 19.06 29.1514 18.98L29.2114 19.928C28.9474 20.024 28.6714 20.072 28.3834 20.072ZM32.4668 11.972C31.7788 11.972 31.4348 12.344 31.4348 13.088V13.64H33.2948V14.588H31.4588V20H30.3068V13.076C30.3068 12.444 30.4908 11.944 30.8588 11.576C31.2268 11.208 31.7428 11.024 32.4068 11.024C32.6628 11.024 32.9028 11.056 33.1268 11.12C33.3508 11.184 33.5428 11.276 33.7028 11.396L33.3548 12.272C33.0908 12.072 32.7948 11.972 32.4668 11.972ZM33.8481 16.208H37.0761V17.204H33.8481V16.208ZM41.835 19.064C42.595 19.064 43.207 18.808 43.671 18.296L44.295 19.04C44.015 19.376 43.659 19.632 43.227 19.808C42.803 19.984 42.327 20.072 41.799 20.072C41.127 20.072 40.531 19.936 40.011 19.664C39.491 19.384 39.087 18.996 38.799 18.5C38.519 18.004 38.379 17.444 38.379 16.82C38.379 16.204 38.515 15.648 38.787 15.152C39.067 14.656 39.447 14.272 39.927 14C40.415 13.72 40.963 13.58 41.571 13.58C42.147 13.58 42.671 13.712 43.143 13.976C43.615 14.232 43.991 14.596 44.271 15.068C44.551 15.54 44.695 16.084 44.703 16.7L39.651 17.684C39.811 18.124 40.079 18.464 40.455 18.704C40.839 18.944 41.299 19.064 41.835 19.064ZM41.571 14.552C41.171 14.552 40.811 14.644 40.491 14.828C40.179 15.012 39.935 15.272 39.759 15.608C39.583 15.936 39.495 16.32 39.495 16.76V16.88L43.563 16.112C43.459 15.648 43.227 15.272 42.867 14.984C42.507 14.696 42.075 14.552 41.571 14.552ZM48.1387 20.072C47.6187 20.072 47.1187 20.004 46.6387 19.868C46.1587 19.724 45.7827 19.544 45.5107 19.328L45.9907 18.416C46.2707 18.616 46.6107 18.776 47.0107 18.896C47.4107 19.016 47.8147 19.076 48.2227 19.076C49.2307 19.076 49.7347 18.788 49.7347 18.212C49.7347 18.02 49.6667 17.868 49.5307 17.756C49.3947 17.644 49.2227 17.564 49.0147 17.516C48.8147 17.46 48.5267 17.4 48.1507 17.336C47.6387 17.256 47.2187 17.164 46.8907 17.06C46.5707 16.956 46.2947 16.78 46.0627 16.532C45.8307 16.284 45.7147 15.936 45.7147 15.488C45.7147 14.912 45.9547 14.452 46.4347 14.108C46.9147 13.756 47.5587 13.58 48.3667 13.58C48.7907 13.58 49.2147 13.632 49.6387 13.736C50.0627 13.84 50.4107 13.98 50.6827 14.156L50.1907 15.068C49.6707 14.732 49.0587 14.564 48.3547 14.564C47.8667 14.564 47.4947 14.644 47.2387 14.804C46.9827 14.964 46.8547 15.176 46.8547 15.44C46.8547 15.648 46.9267 15.812 47.0707 15.932C47.2147 16.052 47.3907 16.14 47.5987 16.196C47.8147 16.252 48.1147 16.316 48.4987 16.388C49.0107 16.476 49.4227 16.572 49.7347 16.676C50.0547 16.772 50.3267 16.94 50.5507 17.18C50.7747 17.42 50.8867 17.756 50.8867 18.188C50.8867 18.764 50.6387 19.224 50.1427 19.568C49.6547 19.904 48.9867 20.072 48.1387 20.072ZM55.6744 19.628C55.5064 19.772 55.2984 19.884 55.0504 19.964C54.8024 20.036 54.5464 20.072 54.2824 20.072C53.6424 20.072 53.1464 19.9 52.7944 19.556C52.4424 19.212 52.2664 18.72 52.2664 18.08V12.248H53.4184V13.64H55.2424V14.588H53.4184V18.032C53.4184 18.376 53.5024 18.64 53.6704 18.824C53.8464 19.008 54.0944 19.1 54.4144 19.1C54.7664 19.1 55.0664 19 55.3144 18.8L55.6744 19.628ZM59.7178 19.064C60.4778 19.064 61.0898 18.808 61.5538 18.296L62.1778 19.04C61.8978 19.376 61.5418 19.632 61.1098 19.808C60.6858 19.984 60.2098 20.072 59.6818 20.072C59.0098 20.072 58.4138 19.936 57.8938 19.664C57.3738 19.384 56.9698 18.996 56.6818 18.5C56.4018 18.004 56.2618 17.444 56.2618 16.82C56.2618 16.204 56.3978 15.648 56.6698 15.152C56.9498 14.656 57.3298 14.272 57.8098 14C58.2978 13.72 58.8458 13.58 59.4538 13.58C60.0298 13.58 60.5538 13.712 61.0258 13.976C61.4978 14.232 61.8738 14.596 62.1538 15.068C62.4338 15.54 62.5778 16.084 62.5858 16.7L57.5338 17.684C57.6938 18.124 57.9618 18.464 58.3378 18.704C58.7218 18.944 59.1818 19.064 59.7178 19.064ZM59.4538 14.552C59.0538 14.552 58.6938 14.644 58.3738 14.828C58.0618 15.012 57.8178 15.272 57.6418 15.608C57.4658 15.936 57.3778 16.32 57.3778 16.76V16.88L61.4458 16.112C61.3418 15.648 61.1098 15.272 60.7498 14.984C60.3898 14.696 59.9578 14.552 59.4538 14.552ZM67.0655 19.064C67.8255 19.064 68.4375 18.808 68.9015 18.296L69.5255 19.04C69.2455 19.376 68.8895 19.632 68.4575 19.808C68.0335 19.984 67.5575 20.072 67.0295 20.072C66.3575 20.072 65.7615 19.936 65.2415 19.664C64.7215 19.384 64.3175 18.996 64.0295 18.5C63.7495 18.004 63.6095 17.444 63.6095 16.82C63.6095 16.204 63.7455 15.648 64.0175 15.152C64.2975 14.656 64.6775 14.272 65.1575 14C65.6455 13.72 66.1935 13.58 66.8015 13.58C67.3775 13.58 67.9015 13.712 68.3735 13.976C68.8455 14.232 69.2215 14.596 69.5015 15.068C69.7815 15.54 69.9255 16.084 69.9335 16.7L64.8815 17.684C65.0415 18.124 65.3095 18.464 65.6855 18.704C66.0695 18.944 66.5295 19.064 67.0655 19.064ZM66.8015 14.552C66.4015 14.552 66.0415 14.644 65.7215 14.828C65.4095 15.012 65.1655 15.272 64.9895 15.608C64.8135 15.936 64.7255 16.32 64.7255 16.76V16.88L68.7935 16.112C68.6895 15.648 68.4575 15.272 68.0975 14.984C67.7375 14.696 67.3055 14.552 66.8015 14.552ZM79.5011 13.58C80.3011 13.58 80.9331 13.812 81.3971 14.276C81.8691 14.74 82.1051 15.428 82.1051 16.34V20H80.9531V16.472C80.9531 15.856 80.8091 15.392 80.5211 15.08C80.2411 14.768 79.8371 14.612 79.3091 14.612C78.7251 14.612 78.2611 14.796 77.9171 15.164C77.5731 15.524 77.4011 16.044 77.4011 16.724V20H76.2491V16.472C76.2491 15.856 76.1051 15.392 75.8171 15.08C75.5371 14.768 75.1331 14.612 74.6051 14.612C74.0211 14.612 73.5571 14.796 73.2131 15.164C72.8691 15.524 72.6971 16.044 72.6971 16.724V20H71.5451V13.64H72.6491V14.588C72.8811 14.26 73.1851 14.012 73.5611 13.844C73.9371 13.668 74.3651 13.58 74.8451 13.58C75.3411 13.58 75.7811 13.68 76.1651 13.88C76.5491 14.08 76.8451 14.372 77.0531 14.756C77.2931 14.388 77.6251 14.1 78.0491 13.892C78.4811 13.684 78.9651 13.58 79.5011 13.58Z" fill="#4D4D4D"/>
<rect x="0.5" y="0.5" width="95" height="30" rx="3.5" stroke="#4D4D4D"/>
</svg>
