<svg width="124" height="31" viewBox="0 0 124 31" fill="none" xmlns="http://www.w3.org/2000/svg">
<path d="M21.048 13.58C21.848 13.58 22.48 13.812 22.944 14.276C23.416 14.74 23.652 15.428 23.652 16.34V20H22.5V16.472C22.5 15.856 22.356 15.392 22.068 15.08C21.788 14.768 21.384 14.612 20.856 14.612C20.272 14.612 19.808 14.796 19.464 15.164C19.12 15.524 18.948 16.044 18.948 16.724V20H17.796V16.472C17.796 15.856 17.652 15.392 17.364 15.08C17.084 14.768 16.68 14.612 16.152 14.612C15.568 14.612 15.104 14.796 14.76 15.164C14.416 15.524 14.244 16.044 14.244 16.724V20H13.092V13.64H14.196V14.588C14.428 14.26 14.732 14.012 15.108 13.844C15.484 13.668 15.912 13.58 16.392 13.58C16.888 13.58 17.328 13.68 17.712 13.88C18.096 14.08 18.392 14.372 18.6 14.756C18.84 14.388 19.172 14.1 19.596 13.892C20.028 13.684 20.512 13.58 21.048 13.58ZM25.7717 13.64H26.9237V20H25.7717V13.64ZM26.3477 12.416C26.1237 12.416 25.9357 12.344 25.7837 12.2C25.6397 12.056 25.5677 11.88 25.5677 11.672C25.5677 11.464 25.6397 11.288 25.7837 11.144C25.9357 10.992 26.1237 10.916 26.3477 10.916C26.5717 10.916 26.7557 10.988 26.8997 11.132C27.0517 11.268 27.1277 11.44 27.1277 11.648C27.1277 11.864 27.0517 12.048 26.8997 12.2C26.7557 12.344 26.5717 12.416 26.3477 12.416ZM32.5193 13.58C33.3273 13.58 33.9673 13.816 34.4393 14.288C34.9193 14.752 35.1593 15.436 35.1593 16.34V20H34.0073V16.472C34.0073 15.856 33.8593 15.392 33.5633 15.08C33.2673 14.768 32.8433 14.612 32.2913 14.612C31.6673 14.612 31.1753 14.796 30.8153 15.164C30.4553 15.524 30.2753 16.044 30.2753 16.724V20H29.1233V13.64H30.2273V14.6C30.4593 14.272 30.7713 14.02 31.1633 13.844C31.5633 13.668 32.0153 13.58 32.5193 13.58ZM43.3264 11.096V20H42.2224V18.992C41.9664 19.344 41.6424 19.612 41.2504 19.796C40.8584 19.98 40.4264 20.072 39.9544 20.072C39.3384 20.072 38.7864 19.936 38.2984 19.664C37.8104 19.392 37.4264 19.012 37.1464 18.524C36.8744 18.028 36.7384 17.46 36.7384 16.82C36.7384 16.18 36.8744 15.616 37.1464 15.128C37.4264 14.64 37.8104 14.26 38.2984 13.988C38.7864 13.716 39.3384 13.58 39.9544 13.58C40.4104 13.58 40.8304 13.668 41.2144 13.844C41.5984 14.012 41.9184 14.264 42.1744 14.6V11.096H43.3264ZM40.0504 19.064C40.4504 19.064 40.8144 18.972 41.1424 18.788C41.4704 18.596 41.7264 18.332 41.9104 17.996C42.0944 17.652 42.1864 17.26 42.1864 16.82C42.1864 16.38 42.0944 15.992 41.9104 15.656C41.7264 15.312 41.4704 15.048 41.1424 14.864C40.8144 14.68 40.4504 14.588 40.0504 14.588C39.6424 14.588 39.2744 14.68 38.9464 14.864C38.6264 15.048 38.3704 15.312 38.1784 15.656C37.9944 15.992 37.9024 16.38 37.9024 16.82C37.9024 17.26 37.9944 17.652 38.1784 17.996C38.3704 18.332 38.6264 18.596 38.9464 18.788C39.2744 18.972 39.6424 19.064 40.0504 19.064ZM45.0981 16.208H48.3261V17.204H45.0981V16.208ZM53.4718 13.58C54.0878 13.58 54.6398 13.716 55.1278 13.988C55.6158 14.26 55.9958 14.64 56.2678 15.128C56.5478 15.616 56.6878 16.18 56.6878 16.82C56.6878 17.46 56.5478 18.028 56.2678 18.524C55.9958 19.012 55.6158 19.392 55.1278 19.664C54.6398 19.936 54.0878 20.072 53.4718 20.072C52.9998 20.072 52.5678 19.98 52.1758 19.796C51.7838 19.612 51.4598 19.344 51.2038 18.992V20H50.0998V11.096H51.2518V14.6C51.5078 14.264 51.8278 14.012 52.2118 13.844C52.5958 13.668 53.0158 13.58 53.4718 13.58ZM53.3758 19.064C53.7838 19.064 54.1478 18.972 54.4678 18.788C54.7958 18.596 55.0518 18.332 55.2358 17.996C55.4278 17.652 55.5238 17.26 55.5238 16.82C55.5238 16.38 55.4278 15.992 55.2358 15.656C55.0518 15.312 54.7958 15.048 54.4678 14.864C54.1478 14.68 53.7838 14.588 53.3758 14.588C52.9758 14.588 52.6118 14.68 52.2838 14.864C51.9558 15.048 51.6998 15.312 51.5158 15.656C51.3318 15.992 51.2398 16.38 51.2398 16.82C51.2398 17.26 51.3318 17.652 51.5158 17.996C51.6998 18.332 51.9558 18.596 52.2838 18.788C52.6118 18.972 52.9758 19.064 53.3758 19.064ZM61.1475 19.064C61.9075 19.064 62.5195 18.808 62.9835 18.296L63.6075 19.04C63.3275 19.376 62.9715 19.632 62.5395 19.808C62.1155 19.984 61.6395 20.072 61.1115 20.072C60.4395 20.072 59.8435 19.936 59.3235 19.664C58.8035 19.384 58.3995 18.996 58.1115 18.5C57.8315 18.004 57.6915 17.444 57.6915 16.82C57.6915 16.204 57.8275 15.648 58.0995 15.152C58.3795 14.656 58.7595 14.272 59.2395 14C59.7275 13.72 60.2755 13.58 60.8835 13.58C61.4595 13.58 61.9835 13.712 62.4555 13.976C62.9275 14.232 63.3035 14.596 63.5835 15.068C63.8635 15.54 64.0075 16.084 64.0155 16.7L58.9635 17.684C59.1235 18.124 59.3915 18.464 59.7675 18.704C60.1515 18.944 60.6115 19.064 61.1475 19.064ZM60.8835 14.552C60.4835 14.552 60.1235 14.644 59.8035 14.828C59.4915 15.012 59.2475 15.272 59.0715 15.608C58.8955 15.936 58.8075 16.32 58.8075 16.76V16.88L62.8755 16.112C62.7715 15.648 62.5395 15.272 62.1795 14.984C61.8195 14.696 61.3875 14.552 60.8835 14.552ZM69.0232 13.58C69.8312 13.58 70.4712 13.816 70.9432 14.288C71.4232 14.752 71.6632 15.436 71.6632 16.34V20H70.5112V16.472C70.5112 15.856 70.3632 15.392 70.0672 15.08C69.7712 14.768 69.3472 14.612 68.7952 14.612C68.1712 14.612 67.6792 14.796 67.3192 15.164C66.9592 15.524 66.7792 16.044 66.7792 16.724V20H65.6272V11.096H66.7792V14.54C67.0192 14.236 67.3312 14 67.7152 13.832C68.1072 13.664 68.5432 13.58 69.0232 13.58ZM79.8303 13.64V20H78.7263V18.992C78.4703 19.344 78.1463 19.612 77.7543 19.796C77.3623 19.98 76.9303 20.072 76.4583 20.072C75.8423 20.072 75.2903 19.936 74.8023 19.664C74.3143 19.392 73.9303 19.012 73.6503 18.524C73.3783 18.028 73.2423 17.46 73.2423 16.82C73.2423 16.18 73.3783 15.616 73.6503 15.128C73.9303 14.64 74.3143 14.26 74.8023 13.988C75.2903 13.716 75.8423 13.58 76.4583 13.58C76.9143 13.58 77.3343 13.668 77.7183 13.844C78.1023 14.012 78.4223 14.264 78.6783 14.6V13.64H79.8303ZM76.5543 19.064C76.9543 19.064 77.3183 18.972 77.6463 18.788C77.9743 18.596 78.2303 18.332 78.4143 17.996C78.5983 17.652 78.6903 17.26 78.6903 16.82C78.6903 16.38 78.5983 15.992 78.4143 15.656C78.2303 15.312 77.9743 15.048 77.6463 14.864C77.3183 14.68 76.9543 14.588 76.5543 14.588C76.1463 14.588 75.7783 14.68 75.4503 14.864C75.1303 15.048 74.8743 15.312 74.6823 15.656C74.4983 15.992 74.4063 16.38 74.4063 16.82C74.4063 17.26 74.4983 17.652 74.6823 17.996C74.8743 18.332 75.1303 18.596 75.4503 18.788C75.7783 18.972 76.1463 19.064 76.5543 19.064ZM87.638 13.64L84.854 20H83.678L80.894 13.64H82.094L84.278 18.74L86.51 13.64H87.638ZM88.7131 13.64H89.8651V20H88.7131V13.64ZM89.2891 12.416C89.0651 12.416 88.8771 12.344 88.7251 12.2C88.5811 12.056 88.5091 11.88 88.5091 11.672C88.5091 11.464 88.5811 11.288 88.7251 11.144C88.8771 10.992 89.0651 10.916 89.2891 10.916C89.5131 10.916 89.6971 10.988 89.8411 11.132C89.9931 11.268 90.0691 11.44 90.0691 11.648C90.0691 11.864 89.9931 12.048 89.8411 12.2C89.6971 12.344 89.5131 12.416 89.2891 12.416ZM94.7887 20.072C94.1567 20.072 93.5887 19.932 93.0847 19.652C92.5807 19.372 92.1847 18.988 91.8967 18.5C91.6167 18.004 91.4767 17.444 91.4767 16.82C91.4767 16.196 91.6167 15.64 91.8967 15.152C92.1847 14.656 92.5807 14.272 93.0847 14C93.5887 13.72 94.1567 13.58 94.7887 13.58C95.4207 13.58 95.9847 13.72 96.4807 14C96.9847 14.272 97.3767 14.656 97.6567 15.152C97.9447 15.64 98.0887 16.196 98.0887 16.82C98.0887 17.444 97.9447 18.004 97.6567 18.5C97.3767 18.988 96.9847 19.372 96.4807 19.652C95.9847 19.932 95.4207 20.072 94.7887 20.072ZM94.7887 19.064C95.1967 19.064 95.5607 18.972 95.8807 18.788C96.2087 18.596 96.4647 18.332 96.6487 17.996C96.8327 17.652 96.9247 17.26 96.9247 16.82C96.9247 16.38 96.8327 15.992 96.6487 15.656C96.4647 15.312 96.2087 15.048 95.8807 14.864C95.5607 14.68 95.1967 14.588 94.7887 14.588C94.3807 14.588 94.0127 14.68 93.6847 14.864C93.3647 15.048 93.1087 15.312 92.9167 15.656C92.7327 15.992 92.6407 16.38 92.6407 16.82C92.6407 17.26 92.7327 17.652 92.9167 17.996C93.1087 18.332 93.3647 18.596 93.6847 18.788C94.0127 18.972 94.3807 19.064 94.7887 19.064ZM105.61 13.64V20H104.518V19.04C104.286 19.368 103.978 19.624 103.594 19.808C103.218 19.984 102.806 20.072 102.358 20.072C101.51 20.072 100.842 19.84 100.354 19.376C99.8658 18.904 99.6218 18.212 99.6218 17.3V13.64H100.774V17.168C100.774 17.784 100.922 18.252 101.218 18.572C101.514 18.884 101.938 19.04 102.49 19.04C103.098 19.04 103.578 18.856 103.93 18.488C104.282 18.12 104.458 17.6 104.458 16.928V13.64H105.61ZM108.907 14.708C109.107 14.34 109.403 14.06 109.795 13.868C110.187 13.676 110.663 13.58 111.223 13.58V14.696C111.159 14.688 111.071 14.684 110.959 14.684C110.335 14.684 109.843 14.872 109.483 15.248C109.131 15.616 108.955 16.144 108.955 16.832V20H107.803V13.64H108.907V14.708Z" fill="#4D4D4D"/>
<rect x="0.5" y="0.5" width="123" height="30" rx="3.5" stroke="#4D4D4D"/>
</svg>
