<svg width="94" height="31" viewBox="0 0 94 31" fill="none" xmlns="http://www.w3.org/2000/svg">
<path d="M14.916 20.072C14.396 20.072 13.896 20.004 13.416 19.868C12.936 19.724 12.56 19.544 12.288 19.328L12.768 18.416C13.048 18.616 13.388 18.776 13.788 18.896C14.188 19.016 14.592 19.076 15 19.076C16.008 19.076 16.512 18.788 16.512 18.212C16.512 18.02 16.444 17.868 16.308 17.756C16.172 17.644 16 17.564 15.792 17.516C15.592 17.46 15.304 17.4 14.928 17.336C14.416 17.256 13.996 17.164 13.668 17.06C13.348 16.956 13.072 16.78 12.84 16.532C12.608 16.284 12.492 15.936 12.492 15.488C12.492 14.912 12.732 14.452 13.212 14.108C13.692 13.756 14.336 13.58 15.144 13.58C15.568 13.58 15.992 13.632 16.416 13.736C16.84 13.84 17.188 13.98 17.46 14.156L16.968 15.068C16.448 14.732 15.836 14.564 15.132 14.564C14.644 14.564 14.272 14.644 14.016 14.804C13.76 14.964 13.632 15.176 13.632 15.44C13.632 15.648 13.704 15.812 13.848 15.932C13.992 16.052 14.168 16.14 14.376 16.196C14.592 16.252 14.892 16.316 15.276 16.388C15.788 16.476 16.2 16.572 16.512 16.676C16.832 16.772 17.104 16.94 17.328 17.18C17.552 17.42 17.664 17.756 17.664 18.188C17.664 18.764 17.416 19.224 16.92 19.568C16.432 19.904 15.764 20.072 14.916 20.072ZM21.8277 20.072C21.1957 20.072 20.6277 19.932 20.1237 19.652C19.6197 19.372 19.2237 18.988 18.9357 18.5C18.6557 18.004 18.5157 17.444 18.5157 16.82C18.5157 16.196 18.6557 15.64 18.9357 15.152C19.2237 14.656 19.6197 14.272 20.1237 14C20.6277 13.72 21.1957 13.58 21.8277 13.58C22.4597 13.58 23.0237 13.72 23.5197 14C24.0237 14.272 24.4157 14.656 24.6957 15.152C24.9837 15.64 25.1277 16.196 25.1277 16.82C25.1277 17.444 24.9837 18.004 24.6957 18.5C24.4157 18.988 24.0237 19.372 23.5197 19.652C23.0237 19.932 22.4597 20.072 21.8277 20.072ZM21.8277 19.064C22.2357 19.064 22.5997 18.972 22.9197 18.788C23.2477 18.596 23.5037 18.332 23.6877 17.996C23.8717 17.652 23.9637 17.26 23.9637 16.82C23.9637 16.38 23.8717 15.992 23.6877 15.656C23.5037 15.312 23.2477 15.048 22.9197 14.864C22.5997 14.68 22.2357 14.588 21.8277 14.588C21.4197 14.588 21.0517 14.68 20.7237 14.864C20.4037 15.048 20.1477 15.312 19.9557 15.656C19.7717 15.992 19.6797 16.38 19.6797 16.82C19.6797 17.26 19.7717 17.652 19.9557 17.996C20.1477 18.332 20.4037 18.596 20.7237 18.788C21.0517 18.972 21.4197 19.064 21.8277 19.064ZM29.4929 20.072C28.8449 20.072 28.2649 19.932 27.7529 19.652C27.2489 19.372 26.8529 18.988 26.5649 18.5C26.2769 18.004 26.1329 17.444 26.1329 16.82C26.1329 16.196 26.2769 15.64 26.5649 15.152C26.8529 14.656 27.2489 14.272 27.7529 14C28.2649 13.72 28.8449 13.58 29.4929 13.58C30.0689 13.58 30.5809 13.696 31.0289 13.928C31.4849 14.16 31.8369 14.496 32.0849 14.936L31.2089 15.5C31.0089 15.196 30.7609 14.968 30.4649 14.816C30.1689 14.664 29.8409 14.588 29.4809 14.588C29.0649 14.588 28.6889 14.68 28.3529 14.864C28.0249 15.048 27.7649 15.312 27.5729 15.656C27.3889 15.992 27.2969 16.38 27.2969 16.82C27.2969 17.268 27.3889 17.664 27.5729 18.008C27.7649 18.344 28.0249 18.604 28.3529 18.788C28.6889 18.972 29.0649 19.064 29.4809 19.064C29.8409 19.064 30.1689 18.988 30.4649 18.836C30.7609 18.684 31.0089 18.456 31.2089 18.152L32.0849 18.704C31.8369 19.144 31.4849 19.484 31.0289 19.724C30.5809 19.956 30.0689 20.072 29.4929 20.072ZM33.5764 13.64H34.7284V20H33.5764V13.64ZM34.1524 12.416C33.9284 12.416 33.7404 12.344 33.5884 12.2C33.4444 12.056 33.3724 11.88 33.3724 11.672C33.3724 11.464 33.4444 11.288 33.5884 11.144C33.7404 10.992 33.9284 10.916 34.1524 10.916C34.3764 10.916 34.5604 10.988 34.7044 11.132C34.8564 11.268 34.9324 11.44 34.9324 11.648C34.9324 11.864 34.8564 12.048 34.7044 12.2C34.5604 12.344 34.3764 12.416 34.1524 12.416ZM42.9279 13.64V20H41.8239V18.992C41.5679 19.344 41.2439 19.612 40.8519 19.796C40.4599 19.98 40.0279 20.072 39.5559 20.072C38.9399 20.072 38.3879 19.936 37.8999 19.664C37.4119 19.392 37.0279 19.012 36.7479 18.524C36.4759 18.028 36.3399 17.46 36.3399 16.82C36.3399 16.18 36.4759 15.616 36.7479 15.128C37.0279 14.64 37.4119 14.26 37.8999 13.988C38.3879 13.716 38.9399 13.58 39.5559 13.58C40.0119 13.58 40.4319 13.668 40.8159 13.844C41.1999 14.012 41.5199 14.264 41.7759 14.6V13.64H42.9279ZM39.6519 19.064C40.0519 19.064 40.4159 18.972 40.7439 18.788C41.0719 18.596 41.3279 18.332 41.5119 17.996C41.6959 17.652 41.7879 17.26 41.7879 16.82C41.7879 16.38 41.6959 15.992 41.5119 15.656C41.3279 15.312 41.0719 15.048 40.7439 14.864C40.4159 14.68 40.0519 14.588 39.6519 14.588C39.2439 14.588 38.8759 14.68 38.5479 14.864C38.2279 15.048 37.9719 15.312 37.7799 15.656C37.5959 15.992 37.5039 16.38 37.5039 16.82C37.5039 17.26 37.5959 17.652 37.7799 17.996C37.9719 18.332 38.2279 18.596 38.5479 18.788C38.8759 18.972 39.2439 19.064 39.6519 19.064ZM47.0396 20.072C46.4236 20.072 45.9476 19.904 45.6116 19.568C45.2756 19.224 45.1076 18.744 45.1076 18.128V11.096H46.2596V18.032C46.2596 18.376 46.3396 18.64 46.4996 18.824C46.6676 19.008 46.9156 19.1 47.2436 19.1C47.4436 19.1 47.6316 19.06 47.8076 18.98L47.8676 19.928C47.6036 20.024 47.3276 20.072 47.0396 20.072ZM54.9578 20.072C54.3098 20.072 53.7298 19.932 53.2178 19.652C52.7138 19.372 52.3178 18.988 52.0298 18.5C51.7418 18.004 51.5978 17.444 51.5978 16.82C51.5978 16.196 51.7418 15.64 52.0298 15.152C52.3178 14.656 52.7138 14.272 53.2178 14C53.7298 13.72 54.3098 13.58 54.9578 13.58C55.5338 13.58 56.0458 13.696 56.4938 13.928C56.9498 14.16 57.3018 14.496 57.5498 14.936L56.6738 15.5C56.4738 15.196 56.2258 14.968 55.9298 14.816C55.6338 14.664 55.3058 14.588 54.9458 14.588C54.5298 14.588 54.1538 14.68 53.8178 14.864C53.4898 15.048 53.2298 15.312 53.0378 15.656C52.8538 15.992 52.7618 16.38 52.7618 16.82C52.7618 17.268 52.8538 17.664 53.0378 18.008C53.2298 18.344 53.4898 18.604 53.8178 18.788C54.1538 18.972 54.5298 19.064 54.9458 19.064C55.3058 19.064 55.6338 18.988 55.9298 18.836C56.2258 18.684 56.4738 18.456 56.6738 18.152L57.5498 18.704C57.3018 19.144 56.9498 19.484 56.4938 19.724C56.0458 19.956 55.5338 20.072 54.9578 20.072ZM60.8912 20.072C60.2752 20.072 59.7992 19.904 59.4632 19.568C59.1272 19.224 58.9592 18.744 58.9592 18.128V11.096H60.1112V18.032C60.1112 18.376 60.1912 18.64 60.3512 18.824C60.5192 19.008 60.7672 19.1 61.0952 19.1C61.2952 19.1 61.4832 19.06 61.6592 18.98L61.7192 19.928C61.4552 20.024 61.1792 20.072 60.8912 20.072ZM68.6975 13.64V20H67.5935V18.992C67.3375 19.344 67.0135 19.612 66.6215 19.796C66.2295 19.98 65.7975 20.072 65.3255 20.072C64.7095 20.072 64.1575 19.936 63.6695 19.664C63.1815 19.392 62.7975 19.012 62.5175 18.524C62.2455 18.028 62.1095 17.46 62.1095 16.82C62.1095 16.18 62.2455 15.616 62.5175 15.128C62.7975 14.64 63.1815 14.26 63.6695 13.988C64.1575 13.716 64.7095 13.58 65.3255 13.58C65.7815 13.58 66.2015 13.668 66.5855 13.844C66.9695 14.012 67.2895 14.264 67.5455 14.6V13.64H68.6975ZM65.4215 19.064C65.8215 19.064 66.1855 18.972 66.5135 18.788C66.8415 18.596 67.0975 18.332 67.2815 17.996C67.4655 17.652 67.5575 17.26 67.5575 16.82C67.5575 16.38 67.4655 15.992 67.2815 15.656C67.0975 15.312 66.8415 15.048 66.5135 14.864C66.1855 14.68 65.8215 14.588 65.4215 14.588C65.0135 14.588 64.6455 14.68 64.3175 14.864C63.9975 15.048 63.7415 15.312 63.5495 15.656C63.3655 15.992 63.2735 16.38 63.2735 16.82C63.2735 17.26 63.3655 17.652 63.5495 17.996C63.7415 18.332 63.9975 18.596 64.3175 18.788C64.6455 18.972 65.0135 19.064 65.4215 19.064ZM72.7012 20.072C72.1812 20.072 71.6812 20.004 71.2012 19.868C70.7212 19.724 70.3452 19.544 70.0732 19.328L70.5532 18.416C70.8332 18.616 71.1732 18.776 71.5732 18.896C71.9732 19.016 72.3772 19.076 72.7852 19.076C73.7932 19.076 74.2972 18.788 74.2972 18.212C74.2972 18.02 74.2292 17.868 74.0932 17.756C73.9572 17.644 73.7852 17.564 73.5772 17.516C73.3772 17.46 73.0892 17.4 72.7132 17.336C72.2012 17.256 71.7812 17.164 71.4532 17.06C71.1332 16.956 70.8572 16.78 70.6252 16.532C70.3932 16.284 70.2772 15.936 70.2772 15.488C70.2772 14.912 70.5172 14.452 70.9972 14.108C71.4772 13.756 72.1212 13.58 72.9292 13.58C73.3532 13.58 73.7772 13.632 74.2012 13.736C74.6252 13.84 74.9732 13.98 75.2452 14.156L74.7532 15.068C74.2332 14.732 73.6212 14.564 72.9172 14.564C72.4292 14.564 72.0572 14.644 71.8012 14.804C71.5452 14.964 71.4172 15.176 71.4172 15.44C71.4172 15.648 71.4892 15.812 71.6332 15.932C71.7772 16.052 71.9532 16.14 72.1612 16.196C72.3772 16.252 72.6772 16.316 73.0612 16.388C73.5732 16.476 73.9852 16.572 74.2972 16.676C74.6172 16.772 74.8892 16.94 75.1132 17.18C75.3372 17.42 75.4492 17.756 75.4492 18.188C75.4492 18.764 75.2012 19.224 74.7052 19.568C74.2172 19.904 73.5492 20.072 72.7012 20.072ZM78.7129 20.072C78.1929 20.072 77.6929 20.004 77.2129 19.868C76.7329 19.724 76.3569 19.544 76.0849 19.328L76.5649 18.416C76.8449 18.616 77.1849 18.776 77.5849 18.896C77.9849 19.016 78.3889 19.076 78.7969 19.076C79.8049 19.076 80.3089 18.788 80.3089 18.212C80.3089 18.02 80.2409 17.868 80.1049 17.756C79.9689 17.644 79.7969 17.564 79.5889 17.516C79.3889 17.46 79.1009 17.4 78.7249 17.336C78.2129 17.256 77.7929 17.164 77.4649 17.06C77.1449 16.956 76.8689 16.78 76.6369 16.532C76.4049 16.284 76.2889 15.936 76.2889 15.488C76.2889 14.912 76.5289 14.452 77.0089 14.108C77.4889 13.756 78.1329 13.58 78.9409 13.58C79.3649 13.58 79.7889 13.632 80.2129 13.736C80.6369 13.84 80.9849 13.98 81.2569 14.156L80.7649 15.068C80.2449 14.732 79.6329 14.564 78.9289 14.564C78.4409 14.564 78.0689 14.644 77.8129 14.804C77.5569 14.964 77.4289 15.176 77.4289 15.44C77.4289 15.648 77.5009 15.812 77.6449 15.932C77.7889 16.052 77.9649 16.14 78.1729 16.196C78.3889 16.252 78.6889 16.316 79.0729 16.388C79.5849 16.476 79.9969 16.572 80.3089 16.676C80.6289 16.772 80.9009 16.94 81.1249 17.18C81.3489 17.42 81.4609 17.756 81.4609 18.188C81.4609 18.764 81.2129 19.224 80.7169 19.568C80.2289 19.904 79.5609 20.072 78.7129 20.072Z" fill="#4D4D4D"/>
<rect x="0.5" y="0.5" width="93" height="30" rx="3.5" stroke="#4D4D4D"/>
</svg>
