<svg width="160" height="171" viewBox="0 0 160 171" fill="none" xmlns="http://www.w3.org/2000/svg">
<path d="M61.7274 114.228C67.8376 115.127 77.7767 119.004 90.2879 111.729C102.508 104.623 66.2145 111.532 62.2287 123.248C57.5697 136.943 119.013 121.2 107.461 118.222C100.998 116.556 63.3763 131.822 68.2219 138.386C74.3861 146.736 118.942 133.774 118.944 129.217C118.948 121.178 66.7468 142.253 69.6402 150.837C73.0905 161.074 108.314 150.22 111.195 143.203C113.499 137.589 78.3603 154.622 83.3981 170.22" stroke="#81ADC8" stroke-width="1.5" stroke-linecap="round"/>
<path d="M154.278 39.7018C155.571 50.2314 152.628 60.8433 146.097 69.203C139.566 77.5628 129.981 82.9856 119.451 84.2784C108.922 85.5713 98.3099 82.6284 89.9502 76.097C81.5904 69.5657 76.1676 59.9809 74.8748 49.4514L98.6959 46.5265C99.213 50.7383 101.382 54.5722 104.726 57.1848C108.07 59.7973 112.315 60.9745 116.527 60.4573C120.738 59.9402 124.572 57.7711 127.185 54.4272C129.797 51.0833 130.975 46.8385 130.457 42.6267L154.278 39.7018Z" fill="#CD4631"/>
<path d="M26.8112 51.7516C25.6646 50.5165 27.1121 48.6209 28.6055 49.4018L36.1403 53.3413C37.826 54.2226 39.8394 52.9733 39.7981 51.0715L39.5423 39.2996C39.5071 37.6793 41.7104 37.1623 42.3996 38.6291L46.0486 46.3959C46.7685 47.9282 48.7714 48.3169 50.0122 47.165L58.4064 39.3726C59.4923 38.3645 61.2268 39.3739 60.8869 40.8161L58.0448 52.874C57.6659 54.4817 58.9225 56.0085 60.5731 55.9458L66.7739 55.7102C68.407 55.6482 68.9478 57.8718 67.4687 58.5667L60.0581 62.0485C58.5257 62.7684 58.1371 64.7713 59.2889 66.0121L63.9719 71.0567C65.11 72.2827 63.6904 74.1699 62.1968 73.4164L52.4868 68.5175C50.7216 67.6268 48.6699 69.041 48.8741 71.0076L49.7042 79.003C49.8828 80.7231 47.4894 81.3301 46.8267 79.7328L42.5311 69.3793C41.7404 67.4735 39.1117 67.2919 38.0665 69.0709L36.3993 71.9083C35.491 73.4542 33.1266 72.3921 33.679 70.6863L34.4787 68.2171C35.0408 66.4813 33.6144 64.7475 31.8029 64.9646L26.1181 65.6457C24.427 65.8483 23.7603 63.523 25.3018 62.7987L30.396 60.4053C31.9283 59.6854 32.317 57.6826 31.1651 56.4418L26.8112 51.7516Z" fill="black" stroke="black"/>
</svg>
