<svg width="180" height="307" viewBox="0 0 180 307" fill="none" xmlns="http://www.w3.org/2000/svg">
<path d="M79.8708 63.2553C81.0329 57.7553 80.8654 48.0316 91.0156 39.703C100.93 31.5679 83.5853 60.2963 72.3402 59.9254C59.1955 59.4917 92.0079 12.1579 90.9002 22.9677C90.2804 29.0154 65.3932 56.1876 61.3271 49.9429C56.1545 41.999 81.2664 8.17228 85.1518 9.63679C92.0061 12.2204 57.5657 49.9568 51.1608 44.7267C43.5234 38.4901 63.8927 11.944 70.7839 11.7453C76.2968 11.5864 50.6869 36.0723 38.9798 26.7564" stroke="#F7EDE8" stroke-width="2.5" stroke-linecap="round"/>
<path d="M53.0914 216.669C50.1349 214.911 51.8762 210.366 55.25 211.034L72.2716 214.404C76.0798 215.158 79.3014 211.552 78.1245 207.853L70.8395 184.954C69.8368 181.802 73.8523 179.52 76.047 181.994L87.6669 195.097C89.9594 197.682 94.1045 197.288 95.8698 194.318L107.813 174.225C109.358 171.626 113.335 172.602 113.501 175.621L114.886 200.866C115.071 204.232 118.411 206.496 121.606 205.422L133.61 201.388C136.771 200.325 139.112 204.367 136.616 206.58L124.115 217.667C121.53 219.959 121.923 224.104 124.893 225.87L136.968 233.047C139.903 234.791 138.212 239.304 134.853 238.69L113.02 234.695C109.051 233.969 105.849 237.92 107.382 241.652L113.615 256.827C114.956 260.091 110.621 262.659 108.403 259.914L94.026 242.12C91.3796 238.844 86.1287 240.004 85.1076 244.089L83.4791 250.605C82.5918 254.155 77.3507 253.438 77.4491 249.78L77.5916 244.485C77.6917 240.763 73.9001 238.191 70.4786 239.66L59.7418 244.269C56.5479 245.64 53.9025 241.472 56.5029 239.166L65.0967 231.544C67.6818 229.252 67.2884 225.107 64.3183 223.342L53.0914 216.669Z" fill="black" stroke="black" stroke-width="2.04081"/>
<path d="M21.0225 122.761C21.7374 119.354 15.3958 102.04 1.6422 108.605" stroke="#81ADC8" stroke-width="2.5" stroke-linecap="round"/>
<path d="M29.8012 117.44C30.3433 116.12 28.5306 106.716 23 110.147" stroke="#81ADC8" stroke-width="2.5" stroke-linecap="round"/>
<path d="M14.038 125.928C16.2297 125.972 20.7055 126.755 21.0752 129.53" stroke="#81ADC8" stroke-width="2.5" stroke-linecap="round"/>
<path d="M154.5 28.5001C158 25.5002 170.329 26.6051 174 31.5001C178.5 37.5001 176 45.5001 178 47.5001" stroke="#CD4631" stroke-width="2.5" stroke-linecap="round"/>
<path d="M162.63 17.869C163.819 16.4384 169.022 15.605 170.968 17.0019C173.353 18.7143 173.013 21.8465 174.015 22.3673" stroke="#CD4631" stroke-width="2.5" stroke-linecap="round"/>
</svg>
