<svg width="145" height="68" viewBox="0 0 145 68" fill="none" xmlns="http://www.w3.org/2000/svg">
<path d="M4.02522 12.2724C4.011 12.1175 3.99347 11.957 3.96638 11.7955L3.96658 11.7954L3.96429 11.7842C3.85368 11.24 3.53947 10.782 2.98951 10.4508C2.95267 10.4284 2.91549 10.4056 2.87791 10.3826C2.46642 10.1307 2.00665 9.8492 1.42239 9.72824C2.17036 9.58526 2.75509 9.30895 3.21506 8.92557C3.73159 8.49508 4.06909 7.94767 4.31077 7.35682L4.31077 7.35683L4.31147 7.35509C4.35561 7.24543 4.39235 7.12967 4.42439 7.01447C4.42167 7.05648 4.41896 7.0987 4.41624 7.14123L4.41623 7.14123L4.41613 7.14307C4.41084 7.23367 4.40333 7.33064 4.39555 7.43116C4.37898 7.64515 4.36116 7.87529 4.36087 8.09459C4.34978 8.46121 4.50481 8.75422 4.7349 8.97471C4.95738 9.18791 5.25159 9.33655 5.54437 9.44566L5.54435 9.44571L5.54981 9.44763C5.61325 9.47003 5.67802 9.49086 5.74411 9.5098C5.71752 9.51676 5.69108 9.52381 5.66477 9.53094L5.66475 9.53084L5.65672 9.53323C5.43745 9.59861 5.18705 9.73427 5.03727 9.92768C5.03339 9.93215 5.02949 9.93664 5.02556 9.94116C4.83903 10.1558 4.60281 10.4276 4.48996 10.7457C4.34275 11.1482 4.22418 11.5687 4.11036 11.9723C4.0818 12.0736 4.05355 12.1738 4.02522 12.2724ZM4.47481 6.21979L4.47481 6.21984C4.47481 6.21961 4.47481 6.21959 4.47481 6.21979Z" stroke="#81ADC8" stroke-width="0.66756"/>
<path d="M6.46445 13.7536C6.4634 13.7565 6.46235 13.7594 6.46131 13.7623C6.38905 13.6755 6.29909 13.5989 6.19154 13.5341L6.01939 13.8201L6.19264 13.5348C6.17831 13.5261 6.1635 13.517 6.14821 13.5076C6.1199 13.4902 6.08994 13.4718 6.05826 13.453C6.14696 13.4048 6.22861 13.3494 6.3036 13.2869C6.36671 13.2343 6.42349 13.178 6.47473 13.119C6.51032 13.1867 6.55689 13.2459 6.60933 13.2961C6.64098 13.3264 6.67479 13.3537 6.70977 13.3781C6.70938 13.3786 6.70898 13.3791 6.70859 13.3796C6.70664 13.3818 6.70464 13.3841 6.7026 13.3865C6.63503 13.4639 6.52128 13.5943 6.46445 13.7536Z" stroke="#81ADC8" stroke-width="0.66756"/>
<mask id="path-3-inside-1_301_4349" fill="white">
<path d="M2.31535 15.4431C2.31105 15.3918 2.30674 15.3404 2.29813 15.2891C2.27661 15.1833 2.21636 15.0934 2.10445 15.0261C1.98824 14.9555 1.87633 14.8817 1.72569 14.8592C1.70417 14.856 1.67835 14.8464 1.66543 14.8336C1.64822 14.8143 1.62239 14.7887 1.6267 14.7694C1.631 14.7502 1.66543 14.7245 1.69556 14.7213C2.09154 14.6668 2.27661 14.4615 2.38422 14.1984C2.41004 14.1342 2.42295 14.0637 2.44017 13.9963C2.45308 13.9738 2.44878 13.9514 2.46169 13.9321C2.4746 13.9161 2.50043 13.8968 2.51764 13.9001C2.53486 13.9001 2.55638 13.9225 2.56929 13.9386C2.5779 13.9514 2.5736 13.9674 2.5736 13.9835C2.56929 14.0508 2.56499 14.115 2.56068 14.1824C2.55638 14.2561 2.54777 14.3299 2.54777 14.4037C2.54347 14.5256 2.64676 14.5994 2.77589 14.6475C2.85766 14.6764 2.94805 14.6924 3.04704 14.6828C3.1073 14.6764 3.16756 14.6892 3.23212 14.6956C3.25364 14.6988 3.27516 14.7021 3.28807 14.7117C3.30529 14.7277 3.32681 14.7502 3.32681 14.7662C3.32681 14.7951 3.28807 14.7983 3.25364 14.7951C3.19769 14.7919 3.14604 14.7887 3.09008 14.7823C2.98679 14.7726 2.8921 14.7919 2.79741 14.8175C2.75437 14.8304 2.71133 14.856 2.68981 14.8849C2.64246 14.9394 2.59512 14.994 2.5736 15.0549C2.52195 15.1961 2.48751 15.3404 2.44447 15.4816C2.43586 15.5105 2.43586 15.5393 2.41865 15.565C2.41004 15.581 2.37991 15.6003 2.3627 15.6003C2.34548 15.6003 2.31535 15.5778 2.31535 15.5618C2.31105 15.5233 2.31535 15.4816 2.31535 15.4431Z"/>
</mask>
<path d="M2.31535 15.4431H2.98291V15.4152L2.98058 15.3873L2.31535 15.4431ZM2.29813 15.2891L2.9565 15.1787L2.9546 15.1674L2.95231 15.1561L2.29813 15.2891ZM2.10445 15.0261L1.75793 15.5966L1.76015 15.598L2.10445 15.0261ZM1.72569 14.8592L1.62727 15.5195L1.72569 14.8592ZM1.66543 14.8336L1.16787 15.2786L1.18095 15.2933L1.19487 15.3071L1.66543 14.8336ZM1.6267 14.7694L2.27817 14.9151L2.27817 14.9151L1.6267 14.7694ZM1.69556 14.7213L1.76624 15.3851L1.77646 15.384L1.78664 15.3826L1.69556 14.7213ZM2.38422 14.1984L3.00209 14.4511L3.00349 14.4477L2.38422 14.1984ZM2.44017 13.9963L1.86146 13.6635L1.81598 13.7426L1.79339 13.831L2.44017 13.9963ZM2.46169 13.9321L1.94168 13.5135L1.92348 13.5361L1.90731 13.5602L2.46169 13.9321ZM2.51764 13.9001L2.39536 14.5563L2.45598 14.5676H2.51764V13.9001ZM2.56929 13.9386L3.12367 13.5667L3.1075 13.5426L3.0893 13.5199L2.56929 13.9386ZM2.5736 13.9835L3.2398 14.026L3.24116 14.0048V13.9835H2.5736ZM2.56068 14.1824L1.89447 14.1398L1.89426 14.1435L2.56068 14.1824ZM2.54777 14.4037L3.21492 14.4273L3.21533 14.4155V14.4037H2.54777ZM2.77589 14.6475L2.54273 15.2731L2.55365 15.277L2.77589 14.6475ZM3.04704 14.6828L3.11164 15.3473L3.11772 15.3466L3.04704 14.6828ZM3.23212 14.6956L3.33054 14.0354L3.31439 14.033L3.29813 14.0314L3.23212 14.6956ZM3.28807 14.7117L3.74313 14.2233L3.71635 14.1983L3.68701 14.1764L3.28807 14.7117ZM3.25364 14.7951L3.31557 14.1304L3.30372 14.1293L3.29185 14.1286L3.25364 14.7951ZM3.09008 14.7823L3.16613 14.119L3.15908 14.1182L3.15201 14.1176L3.09008 14.7823ZM2.79741 14.8175L2.62278 14.1732L2.6147 14.1754L2.60668 14.1778L2.79741 14.8175ZM2.68981 14.8849L3.19391 15.3225L3.21019 15.3038L3.22504 15.2839L2.68981 14.8849ZM2.5736 15.0549L3.20055 15.2843L3.20307 15.2772L2.5736 15.0549ZM2.44447 15.4816L1.80593 15.2869L1.80474 15.2909L2.44447 15.4816ZM2.41865 15.565L1.86427 15.1931L1.84597 15.2204L1.83044 15.2493L2.41865 15.565ZM2.31535 15.5618H2.98291V15.5246L2.97878 15.4876L2.31535 15.5618ZM2.98058 15.3873C2.97664 15.3404 2.97041 15.2617 2.9565 15.1787L1.63977 15.3995C1.64307 15.4192 1.64545 15.4432 1.65013 15.4989L2.98058 15.3873ZM2.95231 15.1561C2.89181 14.8585 2.71326 14.6134 2.44875 14.4541L1.76015 15.598C1.74795 15.5906 1.72046 15.5708 1.69334 15.5331C1.66578 15.4948 1.65058 15.4547 1.64395 15.4221L2.95231 15.1561ZM2.45097 14.4555C2.36615 14.404 2.13386 14.2452 1.82411 14.199L1.62727 15.5195C1.61787 15.5181 1.61699 15.5156 1.63408 15.524C1.64392 15.5288 1.65756 15.5362 1.67861 15.5486C1.70273 15.5628 1.72181 15.5747 1.75793 15.5966L2.45097 14.4555ZM1.82411 14.199C1.8664 14.2053 1.90654 14.2164 1.94554 14.2323C1.96608 14.2408 1.9924 14.253 2.02192 14.2708C2.05015 14.2879 2.09193 14.3163 2.13599 14.3601L1.19487 15.3071C1.28836 15.4 1.38729 15.4464 1.43913 15.4677C1.49965 15.4925 1.56346 15.51 1.62727 15.5195L1.82411 14.199ZM2.163 14.3885C2.13072 14.3525 2.16067 14.3849 2.18006 14.4119C2.19297 14.4298 2.22503 14.4763 2.25147 14.545C2.27765 14.6129 2.31556 14.7479 2.27817 14.9151L0.975226 14.6237C0.935681 14.8006 0.975203 14.946 1.00555 15.0248C1.03616 15.1043 1.07495 15.1619 1.09593 15.1911C1.13146 15.2406 1.18293 15.2955 1.16787 15.2786L2.163 14.3885ZM2.27817 14.9151C2.24739 15.0528 2.18034 15.1427 2.14779 15.1817C2.10927 15.2279 2.07052 15.2604 2.03946 15.2826C1.98571 15.321 1.89454 15.3715 1.76624 15.3851L1.62488 14.0575C1.46646 14.0744 1.34301 14.1393 1.26344 14.1961C1.21946 14.2275 1.16941 14.2702 1.12229 14.3268C1.08113 14.3761 1.00816 14.4765 0.975226 14.6237L2.27817 14.9151ZM1.78664 15.3826C2.08724 15.3412 2.35501 15.2346 2.57543 15.0508C2.79243 14.87 2.92071 14.6501 3.00208 14.4511L1.76635 13.9457C1.74012 14.0098 1.72206 14.024 1.72063 14.0252C1.71903 14.0266 1.7135 14.0311 1.69907 14.0371C1.68375 14.0434 1.65431 14.0531 1.60448 14.06L1.78664 15.3826ZM3.00349 14.4477C3.05134 14.3288 3.0856 14.1668 3.08694 14.1616L1.79339 13.831C1.78735 13.8547 1.78198 13.8774 1.77809 13.8939C1.77376 13.9123 1.77097 13.9241 1.76818 13.9351C1.76253 13.9575 1.76144 13.9578 1.76494 13.9491L3.00349 14.4477ZM3.01888 14.3291C3.0366 14.2982 3.05084 14.2683 3.06232 14.2402C3.07374 14.2122 3.0821 14.1868 3.08829 14.1655C3.0944 14.1444 3.09858 14.1266 3.10121 14.1147C3.10254 14.1086 3.10359 14.1035 3.1043 14.1C3.10494 14.0969 3.10558 14.0937 3.10568 14.0932C3.10593 14.0919 3.10575 14.0928 3.10544 14.0943C3.10511 14.0959 3.10441 14.0992 3.10342 14.1036C3.10147 14.1121 3.09778 14.1273 3.09185 14.1463C3.08581 14.1656 3.07713 14.1899 3.06468 14.2171C3.0521 14.2446 3.03618 14.274 3.01606 14.304L1.90731 13.5602C1.85987 13.631 1.83317 13.698 1.81754 13.7479C1.81 13.7721 1.80496 13.7925 1.80181 13.8064C1.79883 13.8194 1.79662 13.8306 1.79618 13.8329C1.7952 13.8378 1.79611 13.8331 1.79729 13.8277C1.79871 13.8213 1.80154 13.809 1.80603 13.7935C1.81544 13.7611 1.83199 13.7148 1.86146 13.6635L3.01888 14.3291ZM2.98169 14.3507C2.94192 14.4002 2.89589 14.4411 2.84294 14.4743C2.81487 14.4919 2.76853 14.5177 2.70576 14.5376C2.64686 14.5564 2.53481 14.5823 2.39536 14.5563L2.63993 13.2438C2.37149 13.1938 2.17386 13.3179 2.13317 13.3435C2.05977 13.3895 1.99437 13.4481 1.94168 13.5135L2.98169 14.3507ZM2.51764 14.5676C2.38104 14.5676 2.27963 14.5248 2.22896 14.4991C2.17493 14.4716 2.13738 14.4425 2.11781 14.4262C2.07947 14.3943 2.05674 14.3664 2.04929 14.3572L3.0893 13.5199C3.06893 13.4947 3.02898 13.4476 2.97235 13.4004C2.94718 13.3794 2.77845 13.2325 2.51764 13.2325V14.5676ZM2.01492 14.3104C1.91238 14.1576 1.90711 14.0093 1.90711 13.9598C1.90711 13.9368 1.90871 13.9174 1.90811 13.9262C1.90806 13.927 1.90603 13.9532 1.90603 13.9835H3.24116C3.24116 14.0057 3.23967 14.0239 3.24016 14.0167C3.24021 14.016 3.24074 14.0084 3.24117 14.0001C3.24163 13.9912 3.24223 13.977 3.24223 13.9598C3.24223 13.8951 3.23481 13.7323 3.12367 13.5667L2.01492 14.3104ZM1.90739 13.9409C1.90528 13.974 1.90316 14.0064 1.901 14.0393C1.89886 14.0721 1.89667 14.1055 1.89448 14.1398L3.22689 14.2249C3.229 14.1918 3.23112 14.1595 3.23327 14.1265C3.23542 14.0937 3.23761 14.0603 3.2398 14.026L1.90739 13.9409ZM1.89426 14.1435C1.89315 14.1624 1.88021 14.3072 1.88021 14.4037H3.21533C3.21533 14.3526 3.2196 14.3499 3.22711 14.2212L1.89426 14.1435ZM1.88063 14.3802C1.87061 14.6638 1.99666 14.8884 2.14992 15.0353C2.28533 15.165 2.4396 15.2346 2.54277 15.2731L3.009 14.022C2.98305 14.0123 3.02111 14.0209 3.07367 14.0713C3.10388 14.1002 3.14286 14.1469 3.17283 14.2139C3.20391 14.2834 3.21738 14.3574 3.21492 14.4273L1.88063 14.3802ZM2.55365 15.277C2.70957 15.332 2.89848 15.368 3.11164 15.3472L2.98245 14.0184C2.98866 14.0178 2.99456 14.0181 2.99884 14.0187C3.00273 14.0192 3.00278 14.0197 2.99813 14.018L2.55365 15.277ZM3.11772 15.3466C3.09791 15.3487 3.08284 15.3487 3.07462 15.3485C3.06679 15.3483 3.06364 15.3478 3.06851 15.3483C3.07456 15.349 3.08156 15.3499 3.09971 15.3522C3.11498 15.3541 3.13945 15.3573 3.1661 15.3599L3.29813 14.0314C3.29251 14.0308 3.28523 14.0299 3.26916 14.0279C3.25597 14.0262 3.23204 14.023 3.20742 14.0205C3.15774 14.0153 3.0743 14.0086 2.97636 14.019L3.11772 15.3466ZM3.13369 15.3559C3.15177 15.3586 3.12945 15.3558 3.10236 15.3491C3.08612 15.3451 3.05825 15.3374 3.02434 15.3235C2.99066 15.3097 2.94187 15.2862 2.88913 15.2469L3.68701 14.1764C3.57547 14.0933 3.46604 14.0638 3.42428 14.0534C3.37783 14.0418 3.33399 14.0359 3.33054 14.0354L3.13369 15.3559ZM2.83302 15.2001C2.83161 15.1988 2.82692 15.1944 2.82042 15.1876C2.8144 15.1814 2.8025 15.1687 2.7882 15.1504C2.77538 15.134 2.74979 15.0995 2.7251 15.0497C2.70305 15.0053 2.65925 14.9043 2.65925 14.7662H3.99437C3.99437 14.6201 3.94788 14.5103 3.92125 14.4566C3.89199 14.3976 3.85995 14.3535 3.83959 14.3275C3.79942 14.2762 3.75928 14.2383 3.74313 14.2233L2.83302 15.2001ZM2.65925 14.7662C2.65925 14.6073 2.7193 14.4444 2.84039 14.3192C2.94581 14.2103 3.06051 14.1678 3.11918 14.151C3.2275 14.1199 3.31004 14.1299 3.31557 14.1304L3.19171 15.4598C3.23167 15.4635 3.3508 15.4735 3.48709 15.4344C3.55975 15.4136 3.68629 15.3651 3.80004 15.2475C3.92948 15.1137 3.99437 14.9395 3.99437 14.7662H2.65925ZM3.29185 14.1286C3.23647 14.1254 3.20148 14.1231 3.16613 14.119L3.01404 15.4455C3.09059 15.4542 3.1589 15.4583 3.21543 15.4616L3.29185 14.1286ZM3.15201 14.1176C2.92795 14.0967 2.74033 14.1414 2.62278 14.1732L2.97204 15.4619C3.00735 15.4523 3.02453 15.449 3.03358 15.4477C3.04063 15.4467 3.03729 15.4478 3.02816 15.4469L3.15201 14.1176ZM2.60668 14.1778C2.48123 14.2152 2.29108 14.3028 2.15457 14.486L3.22504 15.2839C3.1704 15.3572 3.11383 15.3962 3.0863 15.4132C3.05444 15.4329 3.02205 15.4472 2.98813 15.4573L2.60668 14.1778ZM2.18571 14.4473C2.16044 14.4764 2.01605 14.629 1.94412 14.8327L3.20307 15.2772C3.19334 15.3047 3.1829 15.3254 3.17552 15.3385C3.16823 15.3514 3.16271 15.359 3.16162 15.3605C3.16058 15.362 3.16191 15.36 3.16776 15.353C3.17402 15.3455 3.18128 15.3371 3.19391 15.3225L2.18571 14.4473ZM1.94669 14.8255C1.88827 14.9852 1.83166 15.2025 1.80594 15.2869L3.08301 15.6763C3.14337 15.4784 3.15562 15.407 3.2005 15.2843L1.94669 14.8255ZM1.80474 15.2909C1.7943 15.3259 1.78811 15.3553 1.78545 15.3683C1.78473 15.3717 1.7841 15.3748 1.78371 15.3768C1.78322 15.3792 1.78309 15.3799 1.78291 15.3808C1.78259 15.3824 1.78315 15.3795 1.78421 15.3749C1.78839 15.3567 1.80672 15.2789 1.86427 15.1931L2.97302 15.9369C3.04779 15.8254 3.07473 15.7204 3.08536 15.6741C3.08915 15.6577 3.09462 15.6303 3.09301 15.6381C3.09301 15.6381 3.09296 15.6384 3.09288 15.6387C3.09281 15.6391 3.09268 15.6397 3.09252 15.6404C3.09221 15.6419 3.0917 15.6441 3.09102 15.647C3.08967 15.6527 3.08745 15.6614 3.0842 15.6723L1.80474 15.2909ZM1.83044 15.2493C1.87407 15.168 1.92468 15.1162 1.95062 15.0917C1.98085 15.0632 2.01031 15.0414 2.03664 15.0247C2.0627 15.0082 2.09679 14.9897 2.13928 14.9734C2.17451 14.96 2.25472 14.9327 2.3627 14.9327V16.2679C2.56333 16.2679 2.70726 16.1804 2.75116 16.1526C2.80201 16.1204 2.92337 16.0362 3.00686 15.8807L1.83044 15.2493ZM2.3627 14.9327C2.48886 14.9327 2.58141 14.9695 2.62153 14.9876C2.67048 15.0096 2.71143 15.0357 2.74534 15.0624C2.7778 15.0879 2.82236 15.1285 2.8648 15.1883C2.89908 15.2367 2.98291 15.3684 2.98291 15.5618H1.64779C1.64779 15.7632 1.73539 15.9038 1.77585 15.9608C1.82448 16.0294 1.87765 16.0786 1.9198 16.1117C1.96339 16.146 2.0151 16.1788 2.07454 16.2055C2.12515 16.2282 2.22792 16.2679 2.3627 16.2679V14.9327ZM2.97878 15.4876C2.98049 15.503 2.98086 15.5141 2.98096 15.5189C2.98105 15.5235 2.98093 15.525 2.98106 15.5204C2.98112 15.5182 2.98121 15.5154 2.98136 15.511C2.98147 15.5077 2.98174 15.5005 2.98192 15.4951C2.98233 15.4832 2.98291 15.4643 2.98291 15.4431H1.64779C1.64779 15.4412 1.64784 15.4419 1.64757 15.4499C1.64743 15.4539 1.64676 15.4716 1.64642 15.4845C1.64566 15.5127 1.64452 15.5698 1.65192 15.636L2.97878 15.4876Z" fill="#CD4631" mask="url(#path-3-inside-1_301_4349)"/>
<path d="M136.598 67.7096C136.598 66.7801 136.394 65.5577 136.871 64.6993C137.008 64.4532 136.904 64.2208 137.105 64.0202C137.319 63.8058 137.61 63.6749 137.834 63.4728C138.735 62.6625 138.787 60.8586 138.787 59.682C138.787 58.0597 140.154 56.9257 140.794 55.4858C141.178 54.622 141.836 53.3221 142.476 52.6072C143.171 51.8322 144.108 50.8346 144.443 49.83" stroke="black" stroke-width="0.534048" stroke-linecap="round"/>
<path d="M140.715 58.8389C140.715 58.0912 140.725 57.9454 141.032 57.4078C141.209 57.0972 141.886 56.8795 141.976 56.5632C142.051 56.3026 142.591 55.7071 142.827 55.5896C143.281 55.3622 143.548 54.6517 143.777 54.1937" stroke="black" stroke-width="0.534048" stroke-linecap="round"/>
<path d="M7.59105 45.1988C6.3713 45.1691 5.67318 43.5814 4.64524 44.5066C4.07682 45.0182 2.97792 44.0853 2.55371 43.8732" stroke="black" stroke-width="0.534048" stroke-linecap="round"/>
<path d="M8.38656 47.1872C8.03964 47.1872 7.56162 47.2706 7.22296 47.1578C7.02463 47.0916 6.92163 46.8749 6.72954 46.7895C6.59019 46.7276 6.06619 46.5403 6.00045 46.4581C5.67292 46.0487 4.78252 47.6254 4.14459 47.0547C3.46937 46.4505 2.46589 46.3577 1.6922 45.9279C1.38276 45.756 1.07931 45.7273 0.830546 45.4639C0.648174 45.2708 0.596027 44.9133 0.432861 44.6685" stroke="black" stroke-width="0.534048" stroke-linecap="round"/>
<path d="M120.366 8.49296L121.954 10.3563C122.309 10.7731 122.981 10.6562 123.175 10.1439L124.374 6.97239C124.539 6.53586 125.183 6.63499 125.209 7.10094L125.348 9.56805C125.375 10.0548 125.868 10.3742 126.324 10.2002L129.404 9.02275C129.803 8.87043 130.157 9.32673 129.911 9.6753L127.854 12.5897C127.58 12.9782 127.751 13.5213 128.199 13.6822L129.88 14.2869C130.323 14.4461 130.228 15.0982 129.758 15.1246L127.404 15.2566C126.917 15.2839 126.598 15.777 126.772 16.2324L127.48 18.0838C127.652 18.5338 127.069 18.885 126.752 18.5229L124.686 16.1692C124.31 15.7413 123.61 15.8981 123.453 16.4453L122.814 18.67C122.676 19.1486 121.972 19.0531 121.967 18.5551L121.934 15.3276C121.928 14.7334 121.246 14.402 120.775 14.7645L120.024 15.3429C119.615 15.6579 119.098 15.1197 119.429 14.7236L119.909 14.1503C120.246 13.7472 120.051 13.1306 119.544 12.9935L117.953 12.5634C117.479 12.4355 117.551 11.7427 118.041 11.7152L119.659 11.6244C120.146 11.5971 120.465 11.1041 120.291 10.6487L119.633 8.92735C119.46 8.47406 120.051 8.12365 120.366 8.49296Z" fill="black" stroke="black" stroke-width="0.287953"/>
<path d="M79.6161 25.13C80.5743 23.4702 82.1527 22.2591 84.0039 21.763C85.8552 21.267 87.8277 21.5267 89.4874 22.4849C91.1472 23.4432 92.3583 25.0216 92.8544 26.8728C93.3504 28.7241 93.0907 30.6965 92.1325 32.3563L88.3775 30.1884C88.7609 29.5245 88.8647 28.7355 88.6663 27.995C88.4679 27.2545 87.9834 26.6232 87.3195 26.2399C86.6556 25.8566 85.8666 25.7527 85.1261 25.9511C84.3856 26.1495 83.7543 26.634 83.371 27.2979L79.6161 25.13Z" fill="#CD4631"/>
<path d="M10.72 14.6155C11.6515 14.2923 12.5084 13.833 13.4999 13.8047C14.5506 13.7746 14.6612 14.0501 15.4691 14.5254C16.0315 14.8562 16.2405 15.717 16.7432 16.0312C17.0543 16.2256 17.2348 16.7287 17.4961 16.99C17.9189 17.4128 18.3614 17.8909 18.8282 18.2577C20.1819 19.3214 21.543 20.5735 22.7665 21.797C23.319 22.3496 23.9948 22.7616 24.6455 23.187C25.0094 23.4249 25.2828 23.6503 25.7202 23.6503C26.2466 23.6503 26.3747 23.3584 26.8206 23.1355C27.4494 22.8211 28.039 22.6079 28.7318 22.6079C29.0383 22.6079 30.459 22.9867 29.8064 23.5088C29.461 23.7851 30.0943 23.6503 30.4049 23.6503C30.8225 23.6503 31.1828 23.5498 31.5954 23.5345C32.1868 23.5126 32.89 23.4027 33.4744 23.2964C33.6865 23.2578 34.3971 23.0147 34.5813 23.2449C34.8278 23.5531 34.9288 23.5646 34.9288 23.9978C34.9288 24.337 34.8013 24.6928 35.2183 24.6928C36.0707 24.6928 36.7144 24.5207 37.4771 24.1394C38.3805 23.6877 38.9128 23.0562 39.9095 22.8138C40.6164 22.6418 41.3242 22.492 42.0524 22.492C42.792 22.492 43.5965 22.5597 44.3047 22.3118C46.4172 21.5725 48.3882 20.7376 50.2829 19.5319C51.5955 18.6966 53.0597 18.1558 54.3949 17.3311C55.9416 16.3758 57.4827 15.5265 58.996 14.4996C60.1718 13.7017 61.5848 13.2199 62.7541 12.4404C63.0247 12.26 63.8021 12.2742 64.144 12.2088C64.42 12.1559 64.7165 12.2367 64.987 12.1766C65.4344 12.0772 65.9692 12.0042 66.377 11.7776C67.0144 11.4235 67.7297 11.1489 68.3526 10.793C69.2627 10.273 69.9267 9.45796 70.5405 8.61797C70.8858 8.14543 72.247 7.81082 72.8057 7.78141C73.5609 7.74166 74.5773 7.27223 75.1802 6.80328C76.0757 6.10676 77.2236 5.58061 78.3656 5.58061C79.5288 5.58061 80.7038 5.53756 81.8663 5.58061C82.4865 5.60359 82.8547 6.3727 82.883 6.85476C82.9302 7.65634 83.1361 8.1481 83.4622 8.88181C83.8224 9.69242 85.0075 9.87766 85.7788 10.098C86.5896 10.3297 86.9856 11.2133 87.4005 11.8355" stroke="#F7EDE8" stroke-width="0.66756" stroke-linecap="round"/>
<path d="M9.28775 20.4653C9.28775 21.7216 9.28775 22.9779 9.28775 24.2342C9.28775 25.1058 9.15239 26.0895 9.43107 26.9256C9.79722 28.024 10.0435 29.127 10.5087 30.1902C10.9272 31.1468 11.5999 32.0486 12.2498 32.8656C13.5126 34.4532 15.4358 35.4607 17.2609 36.2789C18.0385 36.6274 18.8596 37.0079 19.6019 37.4255C19.8467 37.5632 20.12 37.69 20.3769 37.8024C20.5281 37.8685 20.9456 37.8802 21.0405 37.9988C21.2482 38.2585 21.2491 38.867 21.3483 39.2144C21.4809 39.6785 21.5182 40.0504 21.5182 40.5309C21.5182 40.883 21.5182 41.2351 21.5182 41.5872C21.5182 42.2416 21.9872 42.8747 22.3304 43.4027C22.7387 44.0309 23.0869 44.643 23.5248 45.2341C24.0663 45.9652 24.8981 46.4655 25.6056 47.0283C26.3265 47.6017 26.9732 48.0763 27.8458 48.3448C29.6738 48.9073 31.8046 48.7482 33.6956 48.7482C34.4124 48.7482 35.2843 48.7945 35.8295 48.2492C36.195 47.8838 36.4236 47.4009 36.732 46.9858C37.5411 45.8965 38.1339 44.2267 38.2342 42.8719C38.2856 42.1776 38.2395 41.4666 38.2395 40.7698C38.2395 40.39 38.5937 40.5431 38.9084 40.5256C39.3616 40.5004 39.8099 40.3311 40.2408 40.1965C41.6047 39.7702 42.9964 39.2747 44.4078 39.0021C45.7851 38.736 47.3202 38.9065 48.7182 38.9065C49.5463 38.9065 50.3744 38.9065 51.2025 38.9065C52.2492 38.9065 53.2306 38.5848 54.2495 38.381C56.0093 38.029 57.7972 37.8639 59.526 37.3777C60.6058 37.074 61.6408 36.6734 62.7004 36.3267C63.3667 36.1086 64.0207 35.9407 64.6433 35.6047C65.0163 35.4034 65.3881 35.149 65.7793 34.989C66.4211 34.7264 67.0346 34.245 67.6691 34.0334" stroke="#F7EDE8" stroke-width="0.66756" stroke-linecap="round"/>
</svg>
