<svg width="127" height="111" viewBox="0 0 127 111" fill="none" xmlns="http://www.w3.org/2000/svg">
<path d="M50.2961 80.0984C46.0308 78.7944 38.3345 78.245 32.464 69.6393C26.7299 61.2337 48.218 76.9554 47.1364 85.8164C45.8722 96.1742 10.7646 66.9239 19.23 68.5573C23.966 69.4711 43.6954 91.0445 38.4752 93.8202C31.8344 97.3512 6.86164 75.1336 8.29146 72.1656C10.8139 66.9297 38.2224 96.7938 33.64 101.489C28.1758 107.088 8.62441 89.1284 8.9505 83.6684C9.21138 79.3004 26.7672 101.257 18.584 109.856" stroke="#81ADC8" stroke-width="1.1126" stroke-linecap="round"/>
<path d="M62.3747 9.61676C62.8902 8.15569 61.1101 0.144964 54.657 2.23297" stroke="#F7EDE8" stroke-width="1.1126" stroke-linecap="round"/>
<path d="M67.1822 12.4371C66.6196 12.143 64.543 8.42064 67.4097 8.00507" stroke="#F7EDE8" stroke-width="1.1126" stroke-linecap="round"/>
<path d="M59.1074 10.6036C60.0717 10.7519 62.0002 11.3601 62.0002 12.6063" stroke="#F7EDE8" stroke-width="1.1126" stroke-linecap="round"/>
<path d="M100.626 95.5775C101.049 95.325 101.508 95.8464 101.204 96.2345L100.793 96.758C100.61 96.9908 100.702 97.3336 100.976 97.445L103.892 98.6293C104.333 98.8085 104.222 99.4621 103.747 99.4861L101.028 99.6231C100.669 99.6412 100.479 100.054 100.697 100.339L101.703 101.646C101.971 101.995 101.625 102.48 101.208 102.339L100.276 102.025C100.023 101.94 99.7523 102.094 99.6977 102.355L99.5163 103.222C99.434 103.616 98.9131 103.707 98.702 103.365L97.9882 102.208C97.7722 101.858 97.2373 101.963 97.1704 102.369L96.8671 104.208C96.7894 104.679 96.1242 104.714 95.9986 104.252L95.2761 101.6C95.2238 101.407 95.0499 101.273 94.8506 101.271L92.3292 101.249C91.8555 101.245 91.7153 100.602 92.1443 100.401L94.1721 99.4515C94.3832 99.3527 94.4822 99.1078 94.3993 98.8901L93.343 96.1173C93.194 95.7259 93.6188 95.3641 93.9815 95.5735L95.482 96.4398C95.6736 96.5504 95.9173 96.5035 96.0542 96.3296L97.216 94.8535C97.5036 94.4881 98.0883 94.7531 98.0032 95.2102L97.7791 96.4143C97.7091 96.7908 98.1157 97.0741 98.4446 96.878L100.626 95.5775Z" fill="#CD4631"/>
<path d="M99.8926 84.9687C99.2479 84.5855 99.6276 83.5943 100.363 83.74L104.075 84.4749C104.906 84.6393 105.608 83.8529 105.352 83.0462L103.763 78.0526C103.544 77.3653 104.42 76.8677 104.899 77.4073L107.433 80.2645C107.932 80.8282 108.836 80.7425 109.221 80.0948L111.826 75.713C112.163 75.1462 113.03 75.3591 113.066 76.0175L113.368 81.5226C113.408 82.2566 114.137 82.7505 114.834 82.5163L117.451 81.6364C118.141 81.4047 118.651 82.286 118.107 82.7686L115.381 85.1864C114.817 85.6863 114.903 86.5902 115.55 86.9752L118.184 88.5404C118.824 88.9208 118.455 89.9049 117.722 89.7709L112.961 88.8997C112.096 88.7413 111.398 89.6029 111.732 90.4168L113.091 93.726C113.384 94.4379 112.438 94.9978 111.954 94.3991L108.819 90.5188C108.242 89.8046 107.097 90.0574 106.874 90.9483L106.519 92.3691C106.326 93.1433 105.183 92.987 105.204 92.1893L105.235 91.0346C105.257 90.2229 104.43 89.662 103.684 89.9823L101.343 90.9876C100.646 91.2866 100.07 90.3776 100.637 89.8747L102.511 88.2127C103.074 87.7128 102.989 86.8088 102.341 86.4239L99.8926 84.9687Z" fill="black" stroke="black" stroke-width="0.44504"/>
</svg>
